<?xml version="1.0" encoding="UTF-8" standalone="no"?>
<!-- Created with Inkscape (http://www.inkscape.org/) -->

<svg
   width="250mm"
   height="170mm"
   viewBox="0 0 250 170"
   version="1.1"
   id="svg8"
   sodipodi:docname="fasani_box.svg"
   inkscape:export-filename="/home/martin/Documents/Design/FasaniCorp/fasani_logo.png"
   inkscape:export-xdpi="96"
   inkscape:export-ydpi="96"
   inkscape:version="1.4.2 (ebf0e940, 2025-05-08)"
   xmlns:inkscape="http://www.inkscape.org/namespaces/inkscape"
   xmlns:sodipodi="http://sodipodi.sourceforge.net/DTD/sodipodi-0.dtd"
   xmlns="http://www.w3.org/2000/svg"
   xmlns:svg="http://www.w3.org/2000/svg"
   xmlns:rdf="http://www.w3.org/1999/02/22-rdf-syntax-ns#"
   xmlns:cc="http://creativecommons.org/ns#"
   xmlns:dc="http://purl.org/dc/elements/1.1/">
  <defs
     id="defs2" />
  <sodipodi:namedview
     id="base"
     pagecolor="#ffffff"
     bordercolor="#666666"
     borderopacity="1.0"
     inkscape:pageopacity="0.0"
     inkscape:pageshadow="2"
     inkscape:zoom="1.95125"
     inkscape:cx="447.918"
     inkscape:cy="648.04612"
     inkscape:document-units="mm"
     inkscape:current-layer="layer2"
     showgrid="false"
     inkscape:window-width="1920"
     inkscape:window-height="970"
     inkscape:window-x="0"
     inkscape:window-y="25"
     inkscape:window-maximized="0"
     inkscape:pagecheckerboard="0"
     inkscape:showpageshadow="2"
     inkscape:deskcolor="#d1d1d1" />
  <metadata
     id="metadata5">
    <rdf:RDF>
      <cc:Work
         rdf:about="">
        <dc:format>image/svg+xml</dc:format>
        <dc:type
           rdf:resource="http://purl.org/dc/dcmitype/StillImage" />
      </cc:Work>
    </rdf:RDF>
  </metadata>
  <g
     inkscape:groupmode="layer"
     id="layer2"
     inkscape:label="Background pins"
     transform="translate(0,-55.000001)">
    <g
       inkscape:groupmode="layer"
       id="layer3"
       inkscape:label="back"
       transform="translate(0,51)">
      <path
         style="fill:none;stroke:#ffffff;stroke-width:0.264583px;stroke-linecap:butt;stroke-linejoin:miter;stroke-opacity:1"
         d="m 37.148989,101.76695 v 43.9654 l 66.171271,-0.016 3.85242,-4.55579 -0.0237,-39.39361 H 37.148989"
         id="path966" />
    </g>
    <g
       id="text1"
       style="font-size:8.46667px;font-family:Verdana;-inkscape-font-specification:Verdana;fill:#4d4d4d;stroke:#808080;stroke-width:0.264583;stroke-linejoin:bevel"
       aria-label="We help you to build your next eink product &#10;From design, to prototype, and finally MVP"
       transform="translate(35.661969,97.629725)">
      <path
         style="font-family:'Noto Sans Yi';-inkscape-font-specification:'Noto Sans Yi';fill:#ffffff"
         d="m 10.43199,106.06618 -1.5999033,6.1557 h -0.921908 l -1.2939783,-5.10977 -1.2650396,5.10977 H 4.4499235 l -1.6288418,-6.1557 h 0.8392256 l 1.2939783,5.11803 1.2733078,-5.11803 h 0.8309574 l 1.2857101,5.16764 1.2857102,-5.16764 z m 4.597137,3.92741 h -3.402378 q 0,0.42581 0.128158,0.74414 0.128157,0.31419 0.3514,0.51676 0.214974,0.19844 0.508496,0.29766 0.297656,0.0992 0.65319,0.0992 0.47129,0 0.946713,-0.18604 0.479557,-0.19016 0.682129,-0.37207 h 0.04134 v 0.8475 q -0.392741,0.16536 -0.802018,0.27698 -0.409278,0.11163 -0.859896,0.11163 -1.149285,0 -1.794207,-0.62012 -0.644922,-0.62425 -0.644922,-1.7694 0,-1.13275 0.615983,-1.79834 0.620118,-0.6656 1.628842,-0.6656 0.93431,0 1.438673,0.54571 0.508496,0.5457 0.508496,1.55029 z m -0.756543,-0.59531 q -0.0041,-0.61185 -0.310059,-0.94672 -0.301791,-0.33486 -0.921908,-0.33486 -0.624252,0 -0.996322,0.36794 -0.367936,0.36793 -0.417546,0.91364 z m 8.772594,2.8236 h -0.777214 v -2.6293 q 0,-0.31833 -0.03721,-0.59531 -0.03721,-0.28112 -0.136425,-0.43822 -0.103353,-0.17363 -0.297657,-0.25631 -0.194303,-0.0868 -0.504362,-0.0868 -0.318327,0 -0.665593,0.1571 -0.347266,0.15709 -0.665592,0.40101 v 3.44785 h -0.777214 v -6.43269 h 0.777214 v 2.32751 q 0.363802,-0.30179 0.752409,-0.47129 0.388607,-0.1695 0.797884,-0.1695 0.748275,0 1.141016,0.45062 0.392741,0.45062 0.392741,1.29811 z m 5.361949,-2.22829 H 25.00475 q 0,0.42581 0.128157,0.74414 0.128158,0.31419 0.3514,0.51676 0.214974,0.19844 0.508496,0.29766 0.297657,0.0992 0.653191,0.0992 0.471289,0 0.946712,-0.18604 0.479558,-0.19016 0.682129,-0.37207 h 0.04134 v 0.8475 q -0.392741,0.16536 -0.802019,0.27698 -0.409277,0.11163 -0.859896,0.11163 -1.149284,0 -1.794207,-0.62012 -0.644922,-0.62425 -0.644922,-1.7694 0,-1.13275 0.615984,-1.79834 0.620117,-0.6656 1.628841,-0.6656 0.934311,0 1.438673,0.54571 0.508496,0.5457 0.508496,1.55029 z m -0.756543,-0.59531 q -0.0041,-0.61185 -0.310059,-0.94672 -0.30179,-0.33486 -0.921908,-0.33486 -0.624251,0 -0.996322,0.36794 -0.367936,0.36793 -0.417545,0.91364 z m 2.72025,2.8236 H 29.59362 v -6.43269 h 0.777214 z m 5.601726,-2.36472 q 0,0.56224 -0.161231,1.0294 -0.16123,0.46302 -0.454753,0.78548 -0.272851,0.30593 -0.644922,0.47542 -0.367936,0.16537 -0.781348,0.16537 -0.359668,0 -0.65319,-0.0786 -0.289388,-0.0785 -0.591179,-0.24391 v 1.93476 h -0.777214 v -6.32106 h 0.777214 v 0.48369 q 0.310059,-0.26045 0.694532,-0.43408 0.388607,-0.17777 0.826823,-0.17777 0.835091,0 1.298112,0.63252 0.467156,0.62839 0.467156,1.74873 z m -0.802019,0.0207 q 0,-0.83509 -0.285254,-1.2485 -0.285254,-0.41341 -0.876433,-0.41341 -0.334863,0 -0.673861,0.14469 -0.338997,0.1447 -0.649056,0.38034 v 2.6169 q 0.330729,0.14883 0.566374,0.20257 0.239779,0.0537 0.541569,0.0537 0.649057,0 1.012859,-0.43821 0.363802,-0.43822 0.363802,-1.29812 z m 8.983434,-2.27376 -2.695444,6.32106 h -0.830957 l 0.859896,-1.92649 -1.839681,-4.39457 h 0.843359 l 1.418002,3.42305 1.430404,-3.42305 z m 4.878257,2.31097 q 0,1.12861 -0.578776,1.78181 -0.578777,0.65319 -1.550294,0.65319 -0.979785,0 -1.558562,-0.65319 -0.574642,-0.6532 -0.574642,-1.78181 0,-1.12861 0.574642,-1.7818 0.578777,-0.65733 1.558562,-0.65733 0.971517,0 1.550294,0.65733 0.578776,0.65319 0.578776,1.7818 z m -0.802019,0 q 0,-0.8971 -0.351399,-1.33118 -0.3514,-0.43822 -0.975652,-0.43822 -0.63252,0 -0.98392,0.43822 -0.347265,0.43408 -0.347265,1.33118 0,0.86817 0.3514,1.31878 0.351399,0.44649 0.979785,0.44649 0.620118,0 0.971517,-0.44235 0.355534,-0.44649 0.355534,-1.32292 z m 5.833242,2.30684 h -0.777214 v -0.51263 q -0.392741,0.31006 -0.752409,0.47542 -0.359668,0.16537 -0.79375,0.16537 -0.727605,0 -1.132748,-0.44235 -0.405144,-0.44649 -0.405144,-1.30639 v -2.99723 h 0.777214 v 2.6293 q 0,0.3514 0.03307,0.60358 0.03307,0.24805 0.14056,0.42581 0.111621,0.1819 0.289388,0.26459 0.177767,0.0827 0.516765,0.0827 0.30179,0 0.657324,-0.1571 0.359668,-0.15709 0.669727,-0.40101 v -3.44785 h 0.777214 z m 6.903973,-0.0413 q -0.219108,0.0579 -0.479557,0.0951 -0.256316,0.0372 -0.458887,0.0372 -0.706934,0 -1.074871,-0.38034 -0.367936,-0.38034 -0.367936,-1.21956 v -2.45567 h -0.525033 v -0.65319 h 0.525033 v -1.32705 h 0.777214 v 1.32705 h 1.604037 v 0.65319 h -1.604037 v 2.10427 q 0,0.3638 0.01654,0.5705 0.01654,0.20258 0.115756,0.38034 0.09095,0.16537 0.248047,0.24392 0.16123,0.0744 0.487825,0.0744 0.19017,0 0.396876,-0.0537 0.206705,-0.0579 0.297656,-0.0951 h 0.04134 z m 4.874123,-2.2655 q 0,1.12861 -0.578777,1.78181 -0.578776,0.65319 -1.550293,0.65319 -0.979786,0 -1.558562,-0.65319 -0.574642,-0.6532 -0.574642,-1.78181 0,-1.12861 0.574642,-1.7818 0.578776,-0.65733 1.558562,-0.65733 0.971517,0 1.550293,0.65733 0.578777,0.65319 0.578777,1.7818 z m -0.802019,0 q 0,-0.8971 -0.3514,-1.33118 -0.3514,-0.43822 -0.975651,-0.43822 -0.63252,0 -0.98392,0.43822 -0.347266,0.43408 -0.347266,1.33118 0,0.86817 0.3514,1.31878 0.3514,0.44649 0.979786,0.44649 0.620117,0 0.971517,-0.44235 0.355534,-0.44649 0.355534,-1.32292 z m 9.045449,-0.0372 q 0,0.57878 -0.165365,1.0418 -0.161231,0.46302 -0.438216,0.77722 -0.293523,0.32659 -0.644922,0.49196 -0.3514,0.16123 -0.77308,0.16123 -0.392741,0 -0.686264,-0.0951 -0.293522,-0.0909 -0.578776,-0.24805 l -0.04961,0.21498 h -0.727605 v -6.43269 h 0.777214 v 2.29857 q 0.326595,-0.26872 0.694532,-0.43821 0.367936,-0.17364 0.826823,-0.17364 0.818555,0 1.289844,0.62839 0.475424,0.62838 0.475424,1.77353 z m -0.802019,0.0207 q 0,-0.82682 -0.272852,-1.25263 -0.272851,-0.42995 -0.880566,-0.42995 -0.338998,0 -0.686264,0.14883 -0.347265,0.14469 -0.644922,0.3762 v 2.64584 q 0.33073,0.14882 0.566374,0.2067 0.239779,0.0579 0.541569,0.0579 0.644923,0 1.008725,-0.42168 0.367936,-0.42581 0.367936,-1.33119 z m 5.841505,2.32338 h -0.777214 v -0.51263 q -0.392741,0.31006 -0.752409,0.47542 -0.359668,0.16537 -0.79375,0.16537 -0.727605,0 -1.132748,-0.44235 -0.405143,-0.44649 -0.405143,-1.30639 v -2.99723 h 0.777214 v 2.6293 q 0,0.3514 0.03307,0.60358 0.03307,0.24805 0.14056,0.42581 0.111622,0.1819 0.289389,0.26459 0.177767,0.0827 0.516764,0.0827 0.301791,0 0.657325,-0.1571 0.359668,-0.15709 0.669726,-0.40101 v -3.44785 h 0.777214 z m 2.364711,-5.39089 h -0.876433 v -0.80615 h 0.876433 z m -0.04961,5.39089 h -0.777214 v -4.61781 h 0.777214 z m 2.323379,0 h -0.777214 v -6.43269 h 0.777214 z m 5.283399,0 h -0.777214 v -0.48369 q -0.334863,0.28938 -0.698665,0.45062 -0.363802,0.16123 -0.789616,0.16123 -0.826824,0 -1.314649,-0.63666 -0.483692,-0.63665 -0.483692,-1.76527 0,-0.58704 0.165365,-1.04593 0.169498,-0.45888 0.454752,-0.78135 0.28112,-0.31419 0.653191,-0.47955 0.376204,-0.16537 0.777214,-0.16537 0.363802,0 0.644922,0.0786 0.28112,0.0744 0.591178,0.23565 v -2.00092 h 0.777214 z M 88.269133,111.085 v -2.64997 q -0.314192,-0.14056 -0.562239,-0.19431 -0.248047,-0.0537 -0.54157,-0.0537 -0.65319,0 -1.016992,0.45475 -0.363802,0.45476 -0.363802,1.28985 0,0.82269 0.281119,1.25263 0.28112,0.42582 0.901238,0.42582 0.330729,0 0.669727,-0.1447 0.338997,-0.14882 0.632519,-0.38033 z m 9.276955,-3.48093 -2.695444,6.32106 h -0.830957 l 0.859896,-1.92649 -1.839682,-4.39457 h 0.84336 l 1.418002,3.42305 1.430404,-3.42305 z m 4.878252,2.31097 q 0,1.12861 -0.57877,1.78181 -0.57878,0.65319 -1.5503,0.65319 -0.979781,0 -1.558557,-0.65319 -0.574642,-0.6532 -0.574642,-1.78181 0,-1.12861 0.574642,-1.7818 0.578776,-0.65733 1.558557,-0.65733 0.97152,0 1.5503,0.65733 0.57877,0.65319 0.57877,1.7818 z m -0.80201,0 q 0,-0.8971 -0.3514,-1.33118 -0.3514,-0.43822 -0.97566,-0.43822 -0.632515,0 -0.983915,0.43822 -0.347266,0.43408 -0.347266,1.33118 0,0.86817 0.3514,1.31878 0.3514,0.44649 0.979781,0.44649 0.62012,0 0.97152,-0.44235 0.35554,-0.44649 0.35554,-1.32292 z m 5.83324,2.30684 h -0.77722 v -0.51263 q -0.39274,0.31006 -0.75241,0.47542 -0.35966,0.16537 -0.79375,0.16537 -0.7276,0 -1.13274,-0.44235 -0.40515,-0.44649 -0.40515,-1.30639 v -2.99723 h 0.77722 v 2.6293 q 0,0.3514 0.0331,0.60358 0.0331,0.24805 0.14056,0.42581 0.11162,0.1819 0.28939,0.26459 0.17777,0.0827 0.51676,0.0827 0.30179,0 0.65733,-0.1571 0.35967,-0.15709 0.66972,-0.40101 v -3.44785 h 0.77722 z m 4.4111,-3.77032 h -0.0413 q -0.17363,-0.0413 -0.33899,-0.0579 -0.16123,-0.0207 -0.38448,-0.0207 -0.35966,0 -0.69453,0.16123 -0.33486,0.15709 -0.64492,0.40927 v 3.27836 h -0.77721 v -4.61781 h 0.77721 v 0.68213 q 0.46302,-0.37207 0.81442,-0.52503 0.35554,-0.1571 0.72347,-0.1571 0.20257,0 0.29352,0.0124 0.0909,0.008 0.27286,0.0372 z m 7.56956,3.77032 h -0.77721 v -2.6293 q 0,-0.31833 -0.0372,-0.59531 -0.0372,-0.28112 -0.13642,-0.43822 -0.10336,-0.17363 -0.29766,-0.25631 -0.1943,-0.0868 -0.50436,-0.0868 -0.31833,0 -0.66559,0.1571 -0.34727,0.15709 -0.6656,0.40101 v 3.44785 h -0.77721 v -4.61781 h 0.77721 v 0.51263 q 0.36381,-0.30179 0.75241,-0.47129 0.38861,-0.1695 0.79789,-0.1695 0.74827,0 1.14101,0.45062 0.39274,0.45062 0.39274,1.29811 z m 5.36195,-2.22829 h -3.40238 q 0,0.42581 0.12816,0.74414 0.12816,0.31419 0.3514,0.51676 0.21497,0.19844 0.5085,0.29766 0.29765,0.0992 0.65319,0.0992 0.47129,0 0.94671,-0.18604 0.47956,-0.19016 0.68213,-0.37207 h 0.0413 v 0.8475 q -0.39274,0.16536 -0.80202,0.27698 -0.40928,0.11163 -0.8599,0.11163 -1.14928,0 -1.7942,-0.62012 -0.64492,-0.62425 -0.64492,-1.7694 0,-1.13275 0.61598,-1.79834 0.62012,-0.6656 1.62884,-0.6656 0.93431,0 1.43867,0.54571 0.5085,0.5457 0.5085,1.55029 z m -0.75654,-0.59531 q -0.004,-0.61185 -0.31006,-0.94672 -0.30179,-0.33486 -0.92191,-0.33486 -0.62425,0 -0.99632,0.36794 -0.36794,0.36793 -0.41755,0.91364 z m 5.93246,2.8236 h -0.97979 l -1.31051,-1.77354 -1.31879,1.77354 h -0.90537 l 1.80248,-2.3027 -1.78594,-2.31511 h 0.97978 l 1.30225,1.7446 1.30638,-1.7446 h 0.90951 l -1.81488,2.27376 z m 3.41064,-0.0413 q -0.2191,0.0579 -0.47955,0.0951 -0.25632,0.0372 -0.45889,0.0372 -0.70693,0 -1.07487,-0.38034 -0.36794,-0.38034 -0.36794,-1.21956 v -2.45567 h -0.52503 v -0.65319 h 0.52503 v -1.32705 h 0.77722 v 1.32705 h 1.60403 v 0.65319 h -1.60403 v 2.10427 q 0,0.3638 0.0165,0.5705 0.0165,0.20258 0.11576,0.38034 0.0909,0.16537 0.24805,0.24392 0.16123,0.0744 0.48782,0.0744 0.19017,0 0.39688,-0.0537 0.2067,-0.0579 0.29765,-0.0951 h 0.0413 z m 7.78041,-2.18695 h -3.40238 q 0,0.42581 0.12816,0.74414 0.12815,0.31419 0.3514,0.51676 0.21497,0.19844 0.50849,0.29766 0.29766,0.0992 0.65319,0.0992 0.47129,0 0.94671,-0.18604 0.47956,-0.19016 0.68213,-0.37207 h 0.0413 v 0.8475 q -0.39275,0.16536 -0.80202,0.27698 -0.40928,0.11163 -0.8599,0.11163 -1.14928,0 -1.79421,-0.62012 -0.64492,-0.62425 -0.64492,-1.7694 0,-1.13275 0.61599,-1.79834 0.62011,-0.6656 1.62884,-0.6656 0.93431,0 1.43867,0.54571 0.5085,0.5457 0.5085,1.55029 z m -0.75655,-0.59531 q -0.004,-0.61185 -0.31006,-0.94672 -0.30179,-0.33486 -0.9219,-0.33486 -0.62426,0 -0.99633,0.36794 -0.36793,0.36793 -0.41754,0.91364 z m 2.76986,-2.56729 h -0.87643 v -0.80615 h 0.87643 z m -0.0496,5.39089 h -0.77721 v -4.61781 h 0.77721 z m 5.39917,0 h -0.77722 v -2.6293 q 0,-0.31833 -0.0372,-0.59531 -0.0372,-0.28112 -0.13643,-0.43822 -0.10335,-0.17363 -0.29766,-0.25631 -0.1943,-0.0868 -0.50436,-0.0868 -0.31833,0 -0.66559,0.1571 -0.34727,0.15709 -0.66559,0.40101 v 3.44785 h -0.77722 v -4.61781 h 0.77722 v 0.51263 q 0.3638,-0.30179 0.7524,-0.47129 0.38861,-0.1695 0.79789,-0.1695 0.74827,0 1.14101,0.45062 0.39275,0.45062 0.39275,1.29811 z m 5.68853,0 h -1.02526 l -1.85209,-2.02158 -0.50436,0.47955 v 1.54203 h -0.77721 v -6.43269 h 0.77721 v 4.12585 l 2.24483,-2.31097 h 0.97978 l -2.1456,2.1332 z m 7.85896,-2.36472 q 0,0.56224 -0.16123,1.0294 -0.16123,0.46302 -0.45475,0.78548 -0.27285,0.30593 -0.64492,0.47542 -0.36794,0.16537 -0.78135,0.16537 -0.35967,0 -0.65319,-0.0786 -0.28939,-0.0785 -0.59118,-0.24391 v 1.93476 h -0.77721 v -6.32106 h 0.77721 v 0.48369 q 0.31006,-0.26045 0.69453,-0.43408 0.38861,-0.17777 0.82682,-0.17777 0.8351,0 1.29812,0.63252 0.46715,0.62839 0.46715,1.74873 z m -0.80202,0.0207 q 0,-0.83509 -0.28525,-1.2485 -0.28525,-0.41341 -0.87643,-0.41341 -0.33487,0 -0.67386,0.14469 -0.339,0.1447 -0.64906,0.38034 v 2.6169 q 0.33073,0.14883 0.56637,0.20257 0.23978,0.0537 0.54157,0.0537 0.64906,0 1.01286,-0.43821 0.3638,-0.43822 0.3638,-1.29812 z m 4.8948,-1.42627 h -0.0413 q -0.17364,-0.0413 -0.339,-0.0579 -0.16123,-0.0207 -0.38447,-0.0207 -0.35967,0 -0.69454,0.16123 -0.33486,0.15709 -0.64492,0.40927 v 3.27836 h -0.77721 v -4.61781 h 0.77721 v 0.68213 q 0.46302,-0.37207 0.81442,-0.52503 0.35554,-0.1571 0.72347,-0.1571 0.20257,0 0.29352,0.0124 0.091,0.008 0.27286,0.0372 z m 4.66742,1.46348 q 0,1.12861 -0.57878,1.78181 -0.57878,0.65319 -1.55029,0.65319 -0.97979,0 -1.55857,-0.65319 -0.57464,-0.6532 -0.57464,-1.78181 0,-1.12861 0.57464,-1.7818 0.57878,-0.65733 1.55857,-0.65733 0.97151,0 1.55029,0.65733 0.57878,0.65319 0.57878,1.7818 z m -0.80202,0 q 0,-0.8971 -0.3514,-1.33118 -0.3514,-0.43822 -0.97565,-0.43822 -0.63252,0 -0.98392,0.43822 -0.34727,0.43408 -0.34727,1.33118 0,0.86817 0.3514,1.31878 0.3514,0.44649 0.97979,0.44649 0.62011,0 0.97151,-0.44235 0.35554,-0.44649 0.35554,-1.32292 z m 5.75055,2.30684 h -0.77721 v -0.48369 q -0.33487,0.28938 -0.69867,0.45062 -0.3638,0.16123 -0.78962,0.16123 -0.82682,0 -1.31465,-0.63666 -0.48369,-0.63665 -0.48369,-1.76527 0,-0.58704 0.16537,-1.04593 0.1695,-0.45888 0.45475,-0.78135 0.28112,-0.31419 0.65319,-0.47955 0.37621,-0.16537 0.77721,-0.16537 0.36381,0 0.64493,0.0786 0.28112,0.0744 0.59118,0.23565 v -2.00092 h 0.77721 z m -0.77721,-1.13688 v -2.64997 q -0.3142,-0.14056 -0.56224,-0.19431 -0.24805,-0.0537 -0.54157,-0.0537 -0.65319,0 -1.017,0.45475 -0.3638,0.45476 -0.3638,1.28985 0,0.82269 0.28112,1.25263 0.28112,0.42582 0.90124,0.42582 0.33073,0 0.66973,-0.1447 0.33899,-0.14882 0.63252,-0.38033 z m 6.13502,1.13688 h -0.77721 v -0.51263 q -0.39274,0.31006 -0.75241,0.47542 -0.35967,0.16537 -0.79375,0.16537 -0.7276,0 -1.13275,-0.44235 -0.40514,-0.44649 -0.40514,-1.30639 v -2.99723 h 0.77721 v 2.6293 q 0,0.3514 0.0331,0.60358 0.0331,0.24805 0.14056,0.42581 0.11162,0.1819 0.28938,0.26459 0.17777,0.0827 0.51677,0.0827 0.30179,0 0.65732,-0.1571 0.35967,-0.15709 0.66973,-0.40101 v -3.44785 h 0.77721 z m 4.94441,-0.28939 q -0.38861,0.18604 -0.74001,0.28939 -0.34726,0.10335 -0.74,0.10335 -0.50023,0 -0.91778,-0.14469 -0.41754,-0.14883 -0.7152,-0.44649 -0.30179,-0.29765 -0.46715,-0.75241 -0.16537,-0.45475 -0.16537,-1.06246 0,-1.13275 0.62012,-1.77767 0.62425,-0.64493 1.64538,-0.64493 0.39687,0 0.77721,0.11162 0.38447,0.11163 0.7028,0.27286 v 0.86403 h -0.0413 q -0.35554,-0.27699 -0.73587,-0.42582 -0.37621,-0.14883 -0.73588,-0.14883 -0.66146,0 -1.04593,0.44649 -0.38034,0.44235 -0.38034,1.30225 0,0.83509 0.37207,1.28571 0.37621,0.44648 1.0542,0.44648 0.23565,0 0.47956,-0.062 0.24391,-0.062 0.43822,-0.16123 0.1695,-0.0868 0.31832,-0.1819 0.14883,-0.0992 0.23565,-0.1695 h 0.0413 z m 3.39411,0.24805 q -0.21911,0.0579 -0.47956,0.0951 -0.25631,0.0372 -0.45888,0.0372 -0.70694,0 -1.07487,-0.38034 -0.36794,-0.38034 -0.36794,-1.21956 v -2.45567 h -0.52503 v -0.65319 h 0.52503 v -1.32705 h 0.77721 v 1.32705 h 1.60404 v 0.65319 h -1.60404 v 2.10427 q 0,0.3638 0.0165,0.5705 0.0165,0.20258 0.11575,0.38034 0.091,0.16537 0.24805,0.24392 0.16123,0.0744 0.48783,0.0744 0.19017,0 0.39687,-0.0537 0.20671,-0.0579 0.29766,-0.0951 h 0.0413 z"
         id="path6" />
      <path
         style="font-family:'Noto Sans Yi';-inkscape-font-specification:'Noto Sans Yi';fill:#ffffff"
         d="M 7.1991107,117.39791 H 4.0861212 v 1.73633 h 2.6747732 v 0.7276 H 4.0861212 v 2.96416 h -0.818555 v -6.1557 h 3.9315445 z m 3.7537773,1.65778 h -0.04134 q -0.173633,-0.0413 -0.338997,-0.0579 -0.161231,-0.0207 -0.384473,-0.0207 -0.3596684,0 -0.6945318,0.16123 -0.3348634,0.1571 -0.6449221,0.40928 v 3.2784 H 8.0714092 v -4.61781 h 0.7772139 v 0.68213 q 0.463021,-0.37207 0.8144209,-0.52503 0.355534,-0.1571 0.72347,-0.1571 0.202572,0 0.293523,0.0124 0.09095,0.008 0.272851,0.0372 z m 4.667418,1.46348 q 0,1.12861 -0.578777,1.7818 -0.578776,0.65319 -1.550293,0.65319 -0.979786,0 -1.558562,-0.65319 -0.574642,-0.65319 -0.574642,-1.7818 0,-1.12862 0.574642,-1.78181 0.578776,-0.65732 1.558562,-0.65732 0.971517,0 1.550293,0.65732 0.578777,0.65319 0.578777,1.78181 z m -0.802019,0 q 0,-0.89711 -0.3514,-1.33119 -0.3514,-0.43822 -0.975651,-0.43822 -0.63252,0 -0.98392,0.43822 -0.347266,0.43408 -0.347266,1.33119 0,0.86816 0.3514,1.31878 0.3514,0.44648 0.979786,0.44648 0.620117,0 0.971517,-0.44235 0.355534,-0.44648 0.355534,-1.32291 z m 8.743656,2.30683 h -0.777214 v -2.6293 q 0,-0.29765 -0.02894,-0.57464 -0.02481,-0.27698 -0.111621,-0.44235 -0.09509,-0.17777 -0.272852,-0.26872 -0.177767,-0.0909 -0.51263,-0.0909 -0.326595,0 -0.653191,0.16537 -0.326595,0.16123 -0.65319,0.41341 0.0124,0.0951 0.02067,0.22324 0.0083,0.12403 0.0083,0.24805 v 2.95589 h -0.777214 v -2.6293 q 0,-0.30592 -0.02894,-0.57877 -0.0248,-0.27699 -0.111621,-0.44235 -0.09509,-0.17777 -0.272852,-0.26459 -0.177767,-0.0909 -0.51263,-0.0909 -0.318327,0 -0.640788,0.1571 -0.318327,0.1571 -0.636654,0.40101 v 3.44785 h -0.777214 v -4.61781 h 0.777214 v 0.51263 q 0.363802,-0.30179 0.72347,-0.47128 0.363803,-0.1695 0.77308,-0.1695 0.471289,0 0.797885,0.19843 0.330729,0.19844 0.491959,0.54984 0.47129,-0.39687 0.859897,-0.57051 0.388607,-0.17776 0.830957,-0.17776 0.760677,0 1.120345,0.46302 0.363803,0.45888 0.363803,1.28571 z m 8.218623,0 h -0.777214 v -0.48369 q -0.334863,0.28939 -0.698666,0.45062 -0.363802,0.16123 -0.789616,0.16123 -0.826823,0 -1.314649,-0.63665 -0.483691,-0.63666 -0.483691,-1.76527 0,-0.58705 0.165364,-1.04593 0.169499,-0.45889 0.454753,-0.78135 0.28112,-0.31419 0.65319,-0.47956 0.376205,-0.16536 0.777214,-0.16536 0.363803,0 0.644922,0.0786 0.28112,0.0744 0.591179,0.23564 v -2.00091 h 0.777214 z m -0.777214,-1.13688 v -2.64997 q -0.314193,-0.14056 -0.56224,-0.1943 -0.248047,-0.0537 -0.541569,-0.0537 -0.65319,0 -1.016993,0.45476 -0.363802,0.45475 -0.363802,1.28984 0,0.82269 0.28112,1.25264 0.28112,0.42581 0.901237,0.42581 0.33073,0 0.669727,-0.14469 0.338998,-0.14883 0.63252,-0.38034 z m 6.172236,-1.09141 h -3.402377 q 0,0.42582 0.128157,0.74414 0.128158,0.3142 0.3514,0.51677 0.214974,0.19844 0.508497,0.29766 0.297656,0.0992 0.65319,0.0992 0.471289,0 0.946712,-0.18603 0.479558,-0.19017 0.68213,-0.37207 h 0.04134 v 0.84749 q -0.392741,0.16537 -0.802019,0.27699 -0.409277,0.11162 -0.859896,0.11162 -1.149284,0 -1.794206,-0.62012 -0.644922,-0.62425 -0.644922,-1.7694 0,-1.13275 0.615983,-1.79834 0.620117,-0.66559 1.628842,-0.66559 0.93431,0 1.438672,0.5457 0.508496,0.5457 0.508496,1.55029 z m -0.756543,-0.59531 q -0.0041,-0.61185 -0.310059,-0.94671 -0.30179,-0.33487 -0.921908,-0.33487 -0.624251,0 -0.996322,0.36794 -0.367936,0.36794 -0.417545,0.91364 z m 5.233792,1.49242 q 0,0.63252 -0.525032,1.03766 -0.520899,0.40514 -1.42627,0.40514 -0.512631,0 -0.942579,-0.11989 -0.425814,-0.12402 -0.715202,-0.26871 v -0.8723 h 0.04134 q 0.367936,0.27698 0.818555,0.44235 0.450619,0.16123 0.86403,0.16123 0.512631,0 0.802019,-0.16537 0.289388,-0.16536 0.289388,-0.52089 0,-0.27286 -0.157096,-0.41342 -0.157097,-0.14056 -0.603581,-0.23977 -0.165365,-0.0372 -0.434082,-0.0868 -0.264584,-0.0496 -0.483692,-0.10749 -0.607715,-0.16123 -0.86403,-0.47129 -0.252181,-0.31419 -0.252181,-0.76894 0,-0.28526 0.115755,-0.53744 0.119889,-0.25218 0.359668,-0.45062 0.23151,-0.1943 0.587044,-0.30592 0.359669,-0.11576 0.802019,-0.11576 0.413412,0 0.835091,0.10336 0.425814,0.0992 0.706934,0.24391 v 0.83096 h -0.04134 q -0.297656,-0.21911 -0.72347,-0.36794 -0.425814,-0.15296 -0.835092,-0.15296 -0.425814,0 -0.719336,0.16536 -0.293522,0.16123 -0.293522,0.48369 0,0.28526 0.177767,0.42995 0.173633,0.1447 0.56224,0.23565 0.214974,0.0496 0.479557,0.0992 0.268718,0.0496 0.446485,0.0909 0.541569,0.12402 0.835091,0.42581 0.293522,0.30592 0.293522,0.81029 z m 1.947166,-4.05971 H 42.72357 v -0.80615 h 0.876433 z m -0.04961,5.39089 h -0.777214 v -4.61781 h 0.777214 z m 5.283403,-0.52503 q 0,1.17409 -0.533301,1.72393 -0.533301,0.54983 -1.641244,0.54983 -0.367936,0 -0.719336,-0.0537 -0.347266,-0.0496 -0.686263,-0.14469 v -0.79375 h 0.04134 q 0.190169,0.0744 0.603581,0.1819 0.413411,0.11162 0.826823,0.11162 0.396875,0 0.657324,-0.0951 0.26045,-0.0951 0.405144,-0.26458 0.144694,-0.16123 0.206706,-0.38861 0.06201,-0.22737 0.06201,-0.50849 v -0.42168 q -0.3514,0.28112 -0.673861,0.42168 -0.318327,0.13642 -0.814421,0.13642 -0.826823,0 -1.314648,-0.59531 -0.483692,-0.59945 -0.483692,-1.68672 0,-0.59531 0.165365,-1.02526 0.169498,-0.43408 0.458886,-0.74828 0.268718,-0.29352 0.653191,-0.45475 0.384473,-0.16536 0.764811,-0.16536 0.40101,0 0.669727,0.0827 0.272852,0.0786 0.574642,0.24391 l 0.04961,-0.19844 h 0.727604 z m -0.777214,-0.74414 v -2.51768 q -0.310058,-0.14056 -0.578776,-0.19844 -0.264583,-0.062 -0.529167,-0.062 -0.640788,0 -1.008724,0.42995 -0.367937,0.42995 -0.367937,1.2485 0,0.77722 0.272852,1.17823 0.272852,0.40101 0.905372,0.40101 0.338997,0 0.677995,-0.12816 0.343131,-0.13229 0.628385,-0.3514 z m 6.168101,1.26917 h -0.777214 v -2.6293 q 0,-0.31832 -0.03721,-0.59531 -0.03721,-0.28112 -0.136426,-0.43821 -0.103353,-0.17364 -0.297656,-0.25632 -0.194304,-0.0868 -0.504363,-0.0868 -0.318327,0 -0.665592,0.1571 -0.347266,0.1571 -0.665593,0.40101 v 3.44785 h -0.777214 v -4.61781 h 0.777214 v 0.51263 q 0.363802,-0.30179 0.752409,-0.47128 0.388607,-0.1695 0.797885,-0.1695 0.748275,0 1.141016,0.45062 0.392741,0.45061 0.392741,1.29811 z m 3.108855,-1.17822 -1.165821,2.70785 h -0.603581 l 0.719337,-2.70785 z m 6.841963,1.13688 q -0.219108,0.0579 -0.479558,0.0951 -0.256315,0.0372 -0.458887,0.0372 -0.706934,0 -1.07487,-0.38034 -0.367936,-0.38033 -0.367936,-1.21956 v -2.45567 h -0.525033 v -0.65319 h 0.525033 v -1.32705 h 0.777214 v 1.32705 h 1.604037 v 0.65319 h -1.604037 v 2.10427 q 0,0.3638 0.01654,0.57051 0.01654,0.20257 0.115755,0.38034 0.09095,0.16536 0.248047,0.24391 0.161231,0.0744 0.487826,0.0744 0.190169,0 0.396875,-0.0537 0.206706,-0.0579 0.297657,-0.0951 h 0.04134 z m 4.874122,-2.26549 q 0,1.12861 -0.578776,1.7818 -0.578776,0.65319 -1.550294,0.65319 -0.979785,0 -1.558562,-0.65319 -0.574642,-0.65319 -0.574642,-1.7818 0,-1.12862 0.574642,-1.78181 0.578777,-0.65732 1.558562,-0.65732 0.971518,0 1.550294,0.65732 0.578776,0.65319 0.578776,1.78181 z m -0.802018,0 q 0,-0.89711 -0.3514,-1.33119 -0.3514,-0.43822 -0.975652,-0.43822 -0.632519,0 -0.983919,0.43822 -0.347266,0.43408 -0.347266,1.33119 0,0.86816 0.3514,1.31878 0.3514,0.44648 0.979785,0.44648 0.620118,0 0.971518,-0.44235 0.355534,-0.44648 0.355534,-1.32291 z m 9.045444,-0.0579 q 0,0.56224 -0.16123,1.02939 -0.161231,0.46302 -0.454753,0.78548 -0.272852,0.30593 -0.644922,0.47543 -0.367936,0.16536 -0.781348,0.16536 -0.359668,0 -0.65319,-0.0786 -0.289388,-0.0785 -0.591179,-0.24391 v 1.93477 h -0.777214 v -6.32107 h 0.777214 v 0.4837 q 0.310059,-0.26045 0.694532,-0.43409 0.388607,-0.17776 0.826823,-0.17776 0.835091,0 1.298112,0.63252 0.467155,0.62838 0.467155,1.74873 z m -0.802018,0.0207 q 0,-0.83509 -0.285254,-1.2485 -0.285254,-0.41342 -0.876433,-0.41342 -0.334863,0 -0.673861,0.1447 -0.338997,0.14469 -0.649056,0.38034 v 2.61689 q 0.330729,0.14883 0.566374,0.20257 0.239779,0.0537 0.541569,0.0537 0.649056,0 1.012859,-0.43822 0.363802,-0.43822 0.363802,-1.29811 z m 4.894792,-1.42627 h -0.04134 q -0.173633,-0.0413 -0.338997,-0.0579 -0.161231,-0.0207 -0.384473,-0.0207 -0.359668,0 -0.694532,0.16123 -0.334863,0.1571 -0.644922,0.40928 v 3.27835 h -0.777214 v -4.61781 h 0.777214 v 0.68213 q 0.463021,-0.37207 0.814421,-0.52503 0.355534,-0.1571 0.723471,-0.1571 0.202571,0 0.293522,0.0124 0.09095,0.008 0.272851,0.0372 z m 4.66742,1.46348 q 0,1.12861 -0.578776,1.7818 -0.578776,0.65319 -1.550294,0.65319 -0.979785,0 -1.558561,-0.65319 -0.574643,-0.65319 -0.574643,-1.7818 0,-1.12862 0.574643,-1.78181 0.578776,-0.65732 1.558561,-0.65732 0.971518,0 1.550294,0.65732 0.578776,0.65319 0.578776,1.78181 z m -0.802018,0 q 0,-0.89711 -0.3514,-1.33119 -0.3514,-0.43822 -0.975652,-0.43822 -0.632519,0 -0.983919,0.43822 -0.347266,0.43408 -0.347266,1.33119 0,0.86816 0.3514,1.31878 0.3514,0.44648 0.979785,0.44648 0.620118,0 0.971518,-0.44235 0.355534,-0.44648 0.355534,-1.32291 z m 4.402837,2.26549 q -0.219108,0.0579 -0.479557,0.0951 -0.256316,0.0372 -0.458887,0.0372 -0.706934,0 -1.074871,-0.38034 -0.367936,-0.38033 -0.367936,-1.21956 v -2.45567 h -0.525033 v -0.65319 h 0.525033 v -1.32705 h 0.777214 v 1.32705 h 1.604037 v 0.65319 h -1.604037 v 2.10427 q 0,0.3638 0.01654,0.57051 0.01654,0.20257 0.115756,0.38034 0.09095,0.16536 0.248047,0.24391 0.16123,0.0744 0.487825,0.0744 0.19017,0 0.396876,-0.0537 0.206705,-0.0579 0.297656,-0.0951 h 0.04134 z m 4.874119,-2.26549 q 0,1.12861 -0.578777,1.7818 -0.578776,0.65319 -1.550293,0.65319 -0.979786,0 -1.558562,-0.65319 -0.574642,-0.65319 -0.574642,-1.7818 0,-1.12862 0.574642,-1.78181 0.578776,-0.65732 1.558562,-0.65732 0.971517,0 1.550293,0.65732 0.578777,0.65319 0.578777,1.78181 z m -0.802019,0 q 0,-0.89711 -0.3514,-1.33119 -0.3514,-0.43822 -0.975651,-0.43822 -0.63252,0 -0.98392,0.43822 -0.347266,0.43408 -0.347266,1.33119 0,0.86816 0.3514,1.31878 0.3514,0.44648 0.979786,0.44648 0.620117,0 0.971517,-0.44235 0.355534,-0.44648 0.355534,-1.32291 z m 4.402838,2.26549 q -0.219109,0.0579 -0.479558,0.0951 -0.256315,0.0372 -0.458887,0.0372 -0.706934,0 -1.07487,-0.38034 -0.367936,-0.38033 -0.367936,-1.21956 v -2.45567 h -0.525033 v -0.65319 h 0.525033 v -1.32705 h 0.777213 v 1.32705 H 98.129 v 0.65319 h -1.604038 v 2.10427 q 0,0.3638 0.01654,0.57051 0.01654,0.20257 0.115755,0.38034 0.09095,0.16536 0.248047,0.24391 0.161231,0.0744 0.487826,0.0744 0.190169,0 0.396875,-0.0537 0.206706,-0.0579 0.297656,-0.0951 H 98.129 Z m 4.89066,-4.57647 -2.69544,6.32107 h -0.830961 l 0.859891,-1.9265 -1.839677,-4.39457 h 0.84336 l 1.417997,3.42305 1.43041,-3.42305 z m 5.08082,2.2531 q 0,0.56224 -0.16123,1.02939 -0.16123,0.46302 -0.45475,0.78548 -0.27285,0.30593 -0.64492,0.47543 -0.36794,0.16536 -0.78135,0.16536 -0.35967,0 -0.65319,-0.0786 -0.28939,-0.0785 -0.59118,-0.24391 v 1.93477 h -0.77721 v -6.32107 h 0.77721 v 0.4837 q 0.31006,-0.26045 0.69453,-0.43409 0.38861,-0.17776 0.82683,-0.17776 0.83509,0 1.29811,0.63252 0.46715,0.62838 0.46715,1.74873 z m -0.80201,0.0207 q 0,-0.83509 -0.28526,-1.2485 -0.28525,-0.41342 -0.87643,-0.41342 -0.33487,0 -0.67386,0.1447 -0.339,0.14469 -0.64906,0.38034 v 2.61689 q 0.33073,0.14883 0.56638,0.20257 0.23977,0.0537 0.54156,0.0537 0.64906,0 1.01286,-0.43822 0.36381,-0.43822 0.36381,-1.29811 z m 5.87871,0.11575 h -3.40238 q 0,0.42582 0.12816,0.74414 0.12815,0.3142 0.3514,0.51677 0.21497,0.19844 0.50849,0.29766 0.29766,0.0992 0.65319,0.0992 0.47129,0 0.94672,-0.18603 0.47955,-0.19017 0.68213,-0.37207 h 0.0413 v 0.84749 q -0.39274,0.16537 -0.80202,0.27699 -0.40928,0.11162 -0.8599,0.11162 -1.14928,0 -1.7942,-0.62012 -0.64493,-0.62425 -0.64493,-1.7694 0,-1.13275 0.61599,-1.79834 0.62011,-0.66559 1.62884,-0.66559 0.93431,0 1.43867,0.5457 0.5085,0.5457 0.5085,1.55029 z m -0.75655,-0.59531 q -0.004,-0.61185 -0.31005,-0.94671 -0.3018,-0.33487 -0.92191,-0.33487 -0.62425,0 -0.99632,0.36794 -0.36794,0.36794 -0.41755,0.91364 z m 3.54708,1.64538 -1.16582,2.70785 h -0.60358 l 0.71933,-2.70785 z m 8.03259,1.17822 h -0.77308 v -0.49196 q -0.10336,0.0703 -0.28112,0.19844 -0.17364,0.12402 -0.339,0.19844 -0.1943,0.0951 -0.44649,0.15709 -0.25218,0.0662 -0.59117,0.0662 -0.62426,0 -1.05834,-0.41341 -0.43408,-0.41341 -0.43408,-1.0542 0,-0.52503 0.22324,-0.8475 0.22738,-0.32659 0.64492,-0.51263 0.42168,-0.18603 1.01286,-0.25218 0.59118,-0.0661 1.26918,-0.0992 v -0.11988 q 0,-0.26459 -0.0951,-0.43822 -0.091,-0.17363 -0.26458,-0.27285 -0.16537,-0.0951 -0.39688,-0.12816 -0.23151,-0.0331 -0.48369,-0.0331 -0.30592,0 -0.68213,0.0827 -0.3762,0.0785 -0.77721,0.23151 h -0.0413 v -0.78962 q 0.22737,-0.062 0.65732,-0.13642 0.42995,-0.0744 0.8475,-0.0744 0.48782,0 0.84749,0.0827 0.3638,0.0785 0.62839,0.27285 0.26045,0.19017 0.39687,0.49196 0.13643,0.30179 0.13643,0.74827 z m -0.77308,-1.13688 v -1.28571 q -0.35554,0.0207 -0.83923,0.062 -0.47956,0.0413 -0.76068,0.11989 -0.33486,0.0951 -0.54157,0.29766 -0.2067,0.19844 -0.2067,0.54984 0,0.39687 0.23978,0.59944 0.23978,0.19844 0.73174,0.19844 0.40927,0 0.74827,-0.1571 0.339,-0.16123 0.62839,-0.38447 z m 6.13089,1.13688 h -0.77721 v -2.6293 q 0,-0.31832 -0.0372,-0.59531 -0.0372,-0.28112 -0.13643,-0.43821 -0.10335,-0.17364 -0.29765,-0.25632 -0.19431,-0.0868 -0.50437,-0.0868 -0.31832,0 -0.66559,0.1571 -0.34726,0.1571 -0.66559,0.40101 v 3.44785 h -0.77722 v -4.61781 h 0.77722 v 0.51263 q 0.3638,-0.30179 0.75241,-0.47128 0.3886,-0.1695 0.79788,-0.1695 0.74828,0 1.14102,0.45062 0.39274,0.45061 0.39274,1.29811 z m 5.24206,0 h -0.77721 v -0.48369 q -0.33486,0.28939 -0.69867,0.45062 -0.3638,0.16123 -0.78961,0.16123 -0.82683,0 -1.31465,-0.63665 -0.48369,-0.63666 -0.48369,-1.76527 0,-0.58705 0.16536,-1.04593 0.1695,-0.45889 0.45475,-0.78135 0.28112,-0.31419 0.65319,-0.47956 0.37621,-0.16536 0.77722,-0.16536 0.3638,0 0.64492,0.0786 0.28112,0.0744 0.59118,0.23564 v -2.00091 h 0.77721 z m -0.77721,-1.13688 v -2.64997 q -0.31419,-0.14056 -0.56224,-0.1943 -0.24805,-0.0537 -0.54157,-0.0537 -0.65319,0 -1.01699,0.45476 -0.36381,0.45475 -0.36381,1.28984 0,0.82269 0.28112,1.25264 0.28112,0.42581 0.90124,0.42581 0.33073,0 0.66973,-0.14469 0.339,-0.14883 0.63252,-0.38034 z m 7.768,-4.54339 h -0.0413 q -0.12816,-0.0372 -0.33486,-0.0744 -0.20671,-0.0413 -0.36381,-0.0413 -0.50022,0 -0.7276,0.22324 -0.22324,0.21911 -0.22324,0.79789 v 0.15709 h 1.40146 v 0.65319 h -1.37666 v 3.96462 h -0.77721 v -3.96462 h -0.52503 v -0.65319 h 0.52503 v -0.15296 q 0,-0.82269 0.40928,-1.2609 0.40927,-0.44235 1.18235,-0.44235 0.26045,0 0.46716,0.0248 0.21084,0.0248 0.38447,0.0579 z m 1.32705,0.28938 h -0.87643 V 116.629 h 0.87643 z m -0.0496,5.39089 h -0.77721 v -4.61781 h 0.77721 z m 5.39916,0 h -0.77721 v -2.6293 q 0,-0.31832 -0.0372,-0.59531 -0.0372,-0.28112 -0.13642,-0.43821 -0.10336,-0.17364 -0.29766,-0.25632 -0.1943,-0.0868 -0.50436,-0.0868 -0.31833,0 -0.66559,0.1571 -0.34727,0.1571 -0.6656,0.40101 v 3.44785 h -0.77721 v -4.61781 h 0.77721 v 0.51263 q 0.36381,-0.30179 0.75241,-0.47128 0.38861,-0.1695 0.79789,-0.1695 0.74827,0 1.14101,0.45062 0.39274,0.45061 0.39274,1.29811 z m 5.08496,0 h -0.77308 v -0.49196 q -0.10336,0.0703 -0.28112,0.19844 -0.17364,0.12402 -0.339,0.19844 -0.19431,0.0951 -0.44649,0.15709 -0.25218,0.0662 -0.59118,0.0662 -0.62425,0 -1.05833,-0.41341 -0.43408,-0.41341 -0.43408,-1.0542 0,-0.52503 0.22324,-0.8475 0.22738,-0.32659 0.64492,-0.51263 0.42168,-0.18603 1.01286,-0.25218 0.59118,-0.0661 1.26918,-0.0992 v -0.11988 q 0,-0.26459 -0.0951,-0.43822 -0.0909,-0.17363 -0.26458,-0.27285 -0.16537,-0.0951 -0.39688,-0.12816 -0.23151,-0.0331 -0.48369,-0.0331 -0.30592,0 -0.68213,0.0827 -0.3762,0.0785 -0.77721,0.23151 h -0.0413 v -0.78962 q 0.22737,-0.062 0.65732,-0.13642 0.42995,-0.0744 0.84749,-0.0744 0.48783,0 0.8475,0.0827 0.3638,0.0785 0.62838,0.27285 0.26045,0.19017 0.39688,0.49196 0.13643,0.30179 0.13643,0.74827 z m -0.77308,-1.13688 v -1.28571 q -0.35554,0.0207 -0.83923,0.062 -0.47956,0.0413 -0.76068,0.11989 -0.33486,0.0951 -0.54157,0.29766 -0.2067,0.19844 -0.2067,0.54984 0,0.39687 0.23978,0.59944 0.23978,0.19844 0.73173,0.19844 0.40928,0 0.74828,-0.1571 0.339,-0.16123 0.62839,-0.38447 z m 3.05512,1.13688 h -0.77721 v -6.43268 h 0.77721 z m 2.32336,0 h -0.77721 v -6.43268 h 0.77721 z m 5.53146,-4.61781 -2.69545,6.32107 h -0.83095 l 0.85989,-1.9265 -1.83968,-4.39457 h 0.84336 l 1.418,3.42305 1.43041,-3.42305 z m 9.5374,4.61781 h -0.81856 v -5.30407 l -1.71152,3.60908 h -0.48783 l -1.69912,-3.60908 v 5.30407 h -0.76481 v -6.1557 h 1.11621 l 1.64125,3.42719 1.5875,-3.42719 h 1.13688 z m 6.5071,-6.1557 -2.2407,6.1557 h -1.0914 l -2.24069,-6.1557 h 0.87643 l 1.93063,5.4157 1.93063,-5.4157 z m 4.96094,1.86036 q 0,0.40927 -0.1447,0.76067 -0.14056,0.34727 -0.39687,0.60358 -0.31833,0.31833 -0.75241,0.47956 -0.43408,0.1571 -1.09554,0.1571 h -0.81856 v 2.29443 h -0.81855 v -6.1557 h 1.67018 q 0.55397,0 0.93845,0.0951 0.38447,0.091 0.68213,0.28939 0.3514,0.23564 0.54156,0.58704 0.19431,0.3514 0.19431,0.88884 z m -0.85163,0.0207 q 0,-0.31833 -0.11162,-0.55398 -0.11162,-0.23564 -0.339,-0.38447 -0.19844,-0.12816 -0.45475,-0.1819 -0.25218,-0.0579 -0.64079,-0.0579 h -0.81029 v 2.4598 h 0.6904 q 0.4961,0 0.80615,-0.0868 0.31006,-0.0909 0.50437,-0.28526 0.1943,-0.19844 0.27285,-0.41754 0.0827,-0.21911 0.0827,-0.49196 z"
         id="path7" />
    </g>
    <text
       xml:space="preserve"
       style="font-size:8.46667px;font-family:Verdana;-inkscape-font-specification:Verdana;text-align:start;writing-mode:lr-tb;direction:ltr;text-anchor:start;fill:#4d4d4d;stroke:#808080;stroke-width:0.264583;stroke-linejoin:bevel"
       x="38.015514"
       y="231.68341"
       id="text1-5"><tspan
         sodipodi:role="line"
         style="font-style:normal;font-variant:normal;font-weight:normal;font-stretch:normal;font-size:8.46667px;font-family:'Noto Sans Yi';-inkscape-font-specification:'Noto Sans Yi';fill:#ffffff;stroke:#808080;stroke-width:0.264583"
         x="38.015514"
         y="231.68341"
         id="tspan2-4">We help you to build your next eink product </tspan><tspan
         sodipodi:role="line"
         style="font-style:normal;font-variant:normal;font-weight:normal;font-stretch:normal;font-size:8.46667px;font-family:'Noto Sans Yi';-inkscape-font-specification:'Noto Sans Yi';fill:#ffffff;stroke:#808080;stroke-width:0.264583"
         x="38.015514"
         y="242.28754"
         id="tspan5-5">From design, to prototype, and finally MVP</tspan></text>
  </g>
  <g
     inkscape:groupmode="layer"
     id="layer4"
     inkscape:label="back 1"
     transform="translate(0,-55.000001)"
     style="fill:#000000" />
  <g
     inkscape:label="Logo"
     inkscape:groupmode="layer"
     id="layer1"
     transform="translate(0,-247)" />
  <text
     xml:space="preserve"
     style="font-style:normal;font-variant:normal;font-weight:normal;font-stretch:normal;font-size:7.76111px;font-family:'Noto Sans Yi';-inkscape-font-specification:'Noto Sans Yi';text-align:start;writing-mode:lr-tb;direction:ltr;text-anchor:start;fill:#000000;stroke:#ffffff;stroke-width:0.264583;stroke-linejoin:bevel"
     x="38.6451"
     y="119.73201"
     id="text3"><tspan
       sodipodi:role="line"
       id="tspan3"
       style="font-size:7.76111px;stroke-width:0.264583"
       x="38.6451"
       y="119.73201">GET OUT OF THE</tspan><tspan
       sodipodi:role="line"
       style="font-size:7.76111px;stroke-width:0.264583"
       x="38.6451"
       y="129.4334"
       id="tspan4" /></text>
  <text
     xml:space="preserve"
     style="font-style:normal;font-variant:normal;font-weight:normal;font-stretch:normal;font-size:16.9333px;font-family:'Noto Sans Yi';-inkscape-font-specification:'Noto Sans Yi';text-align:start;writing-mode:lr-tb;direction:ltr;text-anchor:start;fill:#000000;stroke:#ffffff;stroke-width:0.264583;stroke-linejoin:bevel"
     x="51.13752"
     y="130.536"
     id="text3-7"><tspan
       sodipodi:role="line"
       style="font-size:16.9333px;stroke-width:0.264583"
       x="51.13752"
       y="130.536"
       id="tspan4-4">BOX</tspan></text>
</svg>
