<?xml version="1.0" encoding="UTF-8" standalone="no"?>
<!-- Created with Inkscape (http://www.inkscape.org/) -->

<svg
   width="74mm"
   height="50mm"
   viewBox="0 0 74 50"
   version="1.1"
   id="svg8"
   sodipodi:docname="fasani_logo.svg"
   inkscape:export-filename="/home/martin/Documents/Design/FasaniCorp/fasani_logo.png"
   inkscape:export-xdpi="96"
   inkscape:export-ydpi="96"
   inkscape:version="1.4.2 (ebf0e940, 2025-05-08)"
   xmlns:inkscape="http://www.inkscape.org/namespaces/inkscape"
   xmlns:sodipodi="http://sodipodi.sourceforge.net/DTD/sodipodi-0.dtd"
   xmlns="http://www.w3.org/2000/svg"
   xmlns:svg="http://www.w3.org/2000/svg"
   xmlns:rdf="http://www.w3.org/1999/02/22-rdf-syntax-ns#"
   xmlns:cc="http://creativecommons.org/ns#"
   xmlns:dc="http://purl.org/dc/elements/1.1/">
  <defs
     id="defs2" />
  <sodipodi:namedview
     id="base"
     pagecolor="#ffffff"
     bordercolor="#666666"
     borderopacity="1.0"
     inkscape:pageopacity="0.0"
     inkscape:pageshadow="2"
     inkscape:zoom="1.95125"
     inkscape:cx="175.27226"
     inkscape:cy="198.07816"
     inkscape:document-units="mm"
     inkscape:current-layer="layer1"
     showgrid="false"
     inkscape:window-width="1920"
     inkscape:window-height="1080"
     inkscape:window-x="0"
     inkscape:window-y="0"
     inkscape:window-maximized="0"
     inkscape:pagecheckerboard="0"
     inkscape:showpageshadow="2"
     inkscape:deskcolor="#d1d1d1" />
  <metadata
     id="metadata5">
    <rdf:RDF>
      <cc:Work
         rdf:about="">
        <dc:format>image/svg+xml</dc:format>
        <dc:type
           rdf:resource="http://purl.org/dc/dcmitype/StillImage" />
      </cc:Work>
    </rdf:RDF>
  </metadata>
  <g
     inkscape:groupmode="layer"
     id="layer2"
     inkscape:label="Background pins"
     transform="translate(0,-55)">
    <g
       inkscape:groupmode="layer"
       id="layer3"
       inkscape:label="back"
       transform="translate(0,51)">
      <path
         style="fill:#000000;stroke:#000000;stroke-width:0.264583px;stroke-linecap:butt;stroke-linejoin:miter;stroke-opacity:1"
         d="M 1.0802301,9.0187151 V 52.984105 l 66.1712729,-0.016 3.852418,-4.55579 -0.02369,-39.3935999 H 1.0802301"
         id="path966" />
    </g>
  </g>
  <g
     inkscape:label="Logo"
     inkscape:groupmode="layer"
     id="layer1"
     transform="translate(0,-247)">
    <path
       style="font-weight:bold;font-size:11.2221px;line-height:0;font-family:Waree;-inkscape-font-specification:'Waree Bold';letter-spacing:0.47133px;word-spacing:0px;fill:#ffffff;stroke-width:0.294581"
       d="m 16.506737,273.51477 h -3.753486 v 1.51784 h 3.479509 v 1.5781 h -3.479509 v 3.48499 h -2.093184 v -8.15903 h 5.84667 z m 9.463257,6.58093 h -2.175378 l -0.564392,-1.64934 h -3.024707 l -0.564393,1.64934 h -2.120582 l 3.013747,-8.15903 h 2.421958 z m -3.249368,-3.14525 -1.002756,-2.92608 -1.002756,2.92608 z m 11.424932,0.58083 q 0,1.2055 -1.024674,1.96167 -1.019195,0.7507 -2.772648,0.7507 -1.013715,0 -1.769892,-0.17534 -0.750697,-0.18083 -1.408242,-0.45481 v -1.95619 h 0.230141 q 0.652065,0.52055 1.457558,0.80001 0.810972,0.27946 1.556189,0.27946 0.191784,0 0.504118,-0.0329 0.312334,-0.0329 0.509598,-0.10959 0.241099,-0.0986 0.394527,-0.24658 0.158906,-0.14795 0.158906,-0.43836 0,-0.2685 -0.230141,-0.46029 -0.224661,-0.19726 -0.663024,-0.30137 -0.460281,-0.10959 -0.975358,-0.20274 -0.509598,-0.0986 -0.95892,-0.24658 -1.030154,-0.33425 -1.484956,-0.90413 -0.449322,-0.57535 -0.449322,-1.42468 0,-1.13974 1.019195,-1.85756 1.024674,-0.7233 2.630179,-0.7233 0.805493,0 1.589067,0.15891 0.789054,0.15342 1.364406,0.38904 v 1.87949 h -0.224661 q -0.493159,-0.39453 -1.210979,-0.65755 -0.71234,-0.2685 -1.457558,-0.2685 -0.263018,0 -0.526036,0.0384 -0.257538,0.0329 -0.498638,0.13151 -0.213702,0.0822 -0.367129,0.25206 -0.153427,0.16438 -0.153427,0.37809 0,0.32329 0.246579,0.49863 0.246579,0.16987 0.931522,0.31234 0.449322,0.0932 0.860288,0.18082 0.416445,0.0877 0.893165,0.2411 0.937002,0.30686 1.380845,0.83837 0.449322,0.52604 0.449322,1.36989 z m 9.452299,2.56442 h -2.175378 l -0.564393,-1.64934 h -3.024707 l -0.564392,1.64934 h -2.120583 l 3.013748,-8.15903 h 2.421957 z m -3.249368,-3.14525 -1.002756,-2.92608 -1.002756,2.92608 z m 12.312618,3.14525 h -2.027431 l -3.46307,-5.60009 v 5.60009 h -1.928798 v -8.15903 h 2.515109 l 2.975391,4.67404 v -4.67404 h 1.928799 z m 6.964586,0 h -4.77816 v -1.4466 h 1.337008 v -5.26583 h -1.337008 v -1.4466 h 4.77816 v 1.4466 h -1.337008 v 5.26583 h 1.337008 z"
       id="text4593"
       aria-label="FASANI" />
    <path
       style="font-weight:bold;font-size:10.9361px;line-height:1.25;font-family:Waree;-inkscape-font-specification:'Waree Bold';letter-spacing:0.736453px;word-spacing:0px;fill:#ffffff;stroke-width:0.294581"
       d="m 30.406869,290.64466 q -0.886422,0 -1.639347,-0.26165 -0.747585,-0.26166 -1.286914,-0.77963 -0.539329,-0.51796 -0.838363,-1.29225 -0.293694,-0.77428 -0.293694,-1.78886 0,-0.94516 0.283014,-1.71411 0.283015,-0.76894 0.822344,-1.31895 0.517969,-0.52865 1.281574,-0.81701 0.768944,-0.28835 1.676726,-0.28835 0.50195,0 0.902442,0.0587 0.405832,0.0534 0.747585,0.14418 0.357773,0.10145 0.646127,0.22961 0.293694,0.12282 0.51263,0.22962 v 1.9277 h -0.234956 q -0.149517,-0.12816 -0.379132,-0.30438 -0.224275,-0.17621 -0.51263,-0.34709 -0.293694,-0.17088 -0.635447,-0.28835 -0.341753,-0.11748 -0.731565,-0.11748 -0.432531,0 -0.822344,0.13884 -0.389812,0.13349 -0.720885,0.44855 -0.315054,0.30437 -0.51263,0.80632 -0.192236,0.50195 -0.192236,1.2175 0,0.74758 0.208256,1.24953 0.213596,0.50195 0.533989,0.79031 0.325734,0.29369 0.726226,0.42185 0.400492,0.12281 0.790304,0.12281 0.373792,0 0.736905,-0.11213 0.368452,-0.11214 0.678166,-0.30438 0.261655,-0.15485 0.48593,-0.33107 0.224276,-0.17622 0.368453,-0.30437 h 0.213596 v 1.901 q -0.299034,0.1335 -0.571369,0.25097 -0.272334,0.11748 -0.571368,0.20292 -0.389812,0.11214 -0.731566,0.17088 -0.341753,0.0587 -0.939821,0.0587 z m 12.78859,-4.12773 q 0,1.901 -1.089338,3.02238 -1.089338,1.11603 -3.011699,1.11603 -1.917022,0 -3.00636,-1.11603 -1.089338,-1.12138 -1.089338,-3.02238 0,-1.91702 1.089338,-3.02772 1.089338,-1.11604 3.00636,-1.11604 1.911681,0 3.006359,1.11604 1.094678,1.1107 1.094678,3.02772 z m -2.718005,2.01314 q 0.299034,-0.36312 0.443211,-0.85439 0.144177,-0.49661 0.144177,-1.16409 0,-0.71555 -0.165537,-1.2175 -0.165536,-0.50195 -0.432531,-0.81166 -0.272334,-0.3204 -0.630107,-0.46457 -0.352433,-0.14418 -0.736905,-0.14418 -0.389813,0 -0.736906,0.13884 -0.341753,0.13883 -0.630107,0.45923 -0.266994,0.29903 -0.437871,0.82768 -0.165537,0.52331 -0.165537,1.2175 0,0.7102 0.160197,1.21215 0.165537,0.49661 0.432531,0.81167 0.266995,0.31505 0.624768,0.46457 0.357773,0.14951 0.752925,0.14951 0.395152,0 0.752925,-0.14951 0.357772,-0.15486 0.624767,-0.47525 z m 9.477858,-3.55637 q 0,-0.29904 -0.122817,-0.51263 -0.122818,-0.2136 -0.421852,-0.33641 -0.208256,-0.0854 -0.48593,-0.10146 -0.277675,-0.0214 -0.646127,-0.0214 h -0.742245 v 2.14129 h 0.630107 q 0.49127,0 0.822343,-0.048 0.331074,-0.0481 0.555349,-0.21894 0.213596,-0.16554 0.309714,-0.36311 0.101458,-0.20292 0.101458,-0.53933 z m 3.198596,5.51611 h -2.50441 l -2.167996,-2.91558 h -0.945161 v 2.91558 h -2.039839 v -7.9511 h 3.438891 q 0.704865,0 1.212155,0.0801 0.50729,0.0801 0.950501,0.34709 0.448551,0.26699 0.710206,0.69418 0.266994,0.42186 0.266994,1.06264 0,0.88109 -0.411171,1.43643 -0.405832,0.55535 -1.164097,0.92381 z m 8.196282,-5.44135 q 0,0.53399 -0.186896,1.04662 -0.186896,0.50729 -0.533989,0.85438 -0.475251,0.46991 -1.062639,0.7102 -0.582048,0.2403 -1.452451,0.2403 h -1.276234 v 2.58985 h -2.050519 v -7.9511 h 3.374812 q 0.758265,0 1.276234,0.13349 0.52331,0.12816 0.923802,0.38982 0.48059,0.31505 0.731565,0.80632 0.256315,0.49127 0.256315,1.18012 z m -2.119937,0.0481 q 0,-0.33642 -0.181557,-0.57671 -0.181556,-0.24564 -0.421851,-0.34176 -0.320394,-0.12815 -0.624768,-0.13883 -0.304373,-0.016 -0.811663,-0.016 h -0.352433 v 2.38159 h 0.587388 q 0.523309,0 0.859723,-0.0641 0.341753,-0.0641 0.571368,-0.25631 0.197576,-0.17088 0.283015,-0.40584 0.09078,-0.24029 0.09078,-0.58204 z"
       id="text4593-4"
       aria-label="CORP" />
    <ellipse
       style="opacity:1;fill:#ffffff;stroke-width:0.587824"
       id="path4610"
       cx="64.250137"
       cy="289.37149"
       rx="2.3797245"
       ry="2.440743"
       inkscape:export-xdpi="181.42999"
       inkscape:export-ydpi="181.42999" />
  </g>
</svg>
