<?xml version="1.0" encoding="UTF-8" standalone="no"?>
<!-- Created with Inkscape (http://www.inkscape.org/) -->

<svg
   width="250mm"
   height="70mm"
   viewBox="0 0 250 70"
   version="1.1"
   id="svg8"
   sodipodi:docname="fasani_logo_outline.svg"
   inkscape:export-filename="/home/martin/Documents/Design/FasaniCorp/fasani_logo.png"
   inkscape:export-xdpi="96"
   inkscape:export-ydpi="96"
   inkscape:version="1.4.2 (ebf0e940, 2025-05-08)"
   xmlns:inkscape="http://www.inkscape.org/namespaces/inkscape"
   xmlns:sodipodi="http://sodipodi.sourceforge.net/DTD/sodipodi-0.dtd"
   xmlns="http://www.w3.org/2000/svg"
   xmlns:svg="http://www.w3.org/2000/svg"
   xmlns:rdf="http://www.w3.org/1999/02/22-rdf-syntax-ns#"
   xmlns:cc="http://creativecommons.org/ns#"
   xmlns:dc="http://purl.org/dc/elements/1.1/">
  <defs
     id="defs2" />
  <sodipodi:namedview
     id="base"
     pagecolor="#ffffff"
     bordercolor="#666666"
     borderopacity="1.0"
     inkscape:pageopacity="0.0"
     inkscape:pageshadow="2"
     inkscape:zoom="1.95125"
     inkscape:cx="408.96861"
     inkscape:cy="151.44138"
     inkscape:document-units="mm"
     inkscape:current-layer="layer2"
     showgrid="false"
     inkscape:window-width="1920"
     inkscape:window-height="970"
     inkscape:window-x="0"
     inkscape:window-y="25"
     inkscape:window-maximized="0"
     inkscape:pagecheckerboard="0"
     inkscape:showpageshadow="2"
     inkscape:deskcolor="#d1d1d1" />
  <metadata
     id="metadata5">
    <rdf:RDF>
      <cc:Work
         rdf:about="">
        <dc:format>image/svg+xml</dc:format>
        <dc:type
           rdf:resource="http://purl.org/dc/dcmitype/StillImage" />
      </cc:Work>
    </rdf:RDF>
  </metadata>
  <g
     inkscape:groupmode="layer"
     id="layer2"
     inkscape:label="Background pins"
     transform="translate(0,-55.000001)">
    <g
       inkscape:groupmode="layer"
       id="layer3"
       inkscape:label="back"
       transform="translate(0,51)">
      <path
         style="fill:none;stroke:#ffffff;stroke-width:0.264583px;stroke-linecap:butt;stroke-linejoin:miter;stroke-opacity:1"
         d="M 1.4870206,4.1372289 V 48.102619 l 66.1712734,-0.016 3.852418,-4.55579 -0.02369,-39.3936001 H 1.4870206"
         id="path966" />
    </g>
    <g
       id="text1"
       style="font-size:8.46667px;font-family:Verdana;-inkscape-font-specification:Verdana;fill:#4d4d4d;stroke:#4d4d4d;stroke-width:0.264583;stroke-linejoin:bevel"
       aria-label="We help you to build your next eink product. &#10;From design, to prototype, MVC and product.">
      <path
         style="font-family:'Noto Sans Yi';-inkscape-font-specification:'Noto Sans Yi';fill:#ffffff;stroke:#808080"
         d="M 12.601539,96.167604 11.001636,102.3233 H 10.079728 L 8.7857498,97.213536 7.5207103,102.3233 H 6.6194729 L 4.9906311,96.167604 h 0.8392256 l 1.2939784,5.118036 1.2733078,-5.118036 h 0.8309574 l 1.2857097,5.167646 1.285711,-5.167646 z m 4.597137,3.927406 h -3.402377 q 0,0.42582 0.128157,0.74415 0.128158,0.31419 0.3514,0.51676 0.214974,0.19844 0.508496,0.29766 0.297657,0.0992 0.653191,0.0992 0.471289,0 0.946712,-0.18604 0.479558,-0.19017 0.68213,-0.37207 h 0.04134 v 0.84749 q -0.392741,0.16537 -0.802019,0.27699 -0.409277,0.11162 -0.859896,0.11162 -1.149284,0 -1.794206,-0.62012 -0.644922,-0.62425 -0.644922,-1.7694 0,-1.132747 0.615983,-1.798339 0.620117,-0.665593 1.628842,-0.665593 0.93431,0 1.438672,0.545703 0.508496,0.545703 0.508496,1.550294 z m -0.756543,-0.595308 q -0.0041,-0.611849 -0.310059,-0.946713 -0.30179,-0.334863 -0.921908,-0.334863 -0.624251,0 -0.996322,0.367936 -0.367936,0.367936 -0.417545,0.91364 z m 8.772595,2.823598 h -0.777214 v -2.629295 q 0,-0.318327 -0.03721,-0.595312 -0.03721,-0.28112 -0.136426,-0.438217 -0.103353,-0.173633 -0.297656,-0.256315 -0.194304,-0.08682 -0.504363,-0.08682 -0.318327,0 -0.665592,0.157096 -0.347266,0.157096 -0.665593,0.401009 v 3.44785 h -0.777214 v -6.432682 h 0.777214 v 2.327508 q 0.363802,-0.301791 0.752409,-0.471289 0.388607,-0.169499 0.797885,-0.169499 0.748275,0 1.141016,0.450618 0.392741,0.450619 0.392741,1.298113 z m 5.361949,-2.22829 h -3.402378 q 0,0.42582 0.128158,0.74415 0.128157,0.31419 0.351399,0.51676 0.214974,0.19844 0.508497,0.29766 0.297656,0.0992 0.65319,0.0992 0.471289,0 0.946713,-0.18604 0.479557,-0.19017 0.682129,-0.37207 h 0.04134 v 0.84749 q -0.392741,0.16537 -0.802018,0.27699 -0.409278,0.11162 -0.859897,0.11162 -1.149284,0 -1.794206,-0.62012 -0.644922,-0.62425 -0.644922,-1.7694 0,-1.132747 0.615983,-1.798339 0.620118,-0.665593 1.628842,-0.665593 0.93431,0 1.438672,0.545703 0.508497,0.545703 0.508497,1.550294 z m -0.756544,-0.595308 q -0.0041,-0.611849 -0.310058,-0.946713 -0.301791,-0.334863 -0.921908,-0.334863 -0.624252,0 -0.996322,0.367936 -0.367937,0.367936 -0.417546,0.91364 z m 2.72025,2.823598 h -0.777214 v -6.432682 h 0.777214 z m 5.601726,-2.364711 q 0,0.562241 -0.16123,1.029391 -0.161231,0.46302 -0.454753,0.78549 -0.272852,0.30592 -0.644922,0.47542 -0.367937,0.16536 -0.781348,0.16536 -0.359668,0 -0.653191,-0.0785 -0.289388,-0.0786 -0.591178,-0.24392 v 1.93477 h -0.777214 v -6.321065 h 0.777214 v 0.483692 q 0.310058,-0.260449 0.694531,-0.434082 0.388607,-0.177767 0.826823,-0.177767 0.835092,0 1.298113,0.63252 0.467155,0.628385 0.467155,1.748731 z m -0.802018,0.02067 q 0,-0.835091 -0.285255,-1.248503 -0.285254,-0.413411 -0.876432,-0.413411 -0.334864,0 -0.673861,0.144694 -0.338998,0.144694 -0.649056,0.380338 v 2.616893 q 0.330729,0.14883 0.566374,0.20257 0.239778,0.0538 0.541569,0.0538 0.649056,0 1.012858,-0.43822 0.363803,-0.43821 0.363803,-1.298111 z m 8.983434,-2.273764 -2.695444,6.321065 h -0.830957 l 0.859896,-1.9265 -1.839682,-4.394565 h 0.84336 l 1.418002,3.423045 1.430404,-3.423045 z m 4.878256,2.310975 q 0,1.12861 -0.578776,1.7818 -0.578776,0.65319 -1.550293,0.65319 -0.979786,0 -1.558562,-0.65319 -0.574642,-0.65319 -0.574642,-1.7818 0,-1.128617 0.574642,-1.781808 0.578776,-0.657324 1.558562,-0.657324 0.971517,0 1.550293,0.657324 0.578776,0.653191 0.578776,1.781808 z m -0.802018,0 q 0,-0.897107 -0.3514,-1.331189 -0.3514,-0.438216 -0.975651,-0.438216 -0.63252,0 -0.98392,0.438216 -0.347266,0.434082 -0.347266,1.331189 0,0.86816 0.3514,1.31878 0.3514,0.44648 0.979786,0.44648 0.620117,0 0.971517,-0.44235 0.355534,-0.44648 0.355534,-1.32291 z m 5.833241,2.30683 h -0.777213 v -0.51263 q -0.392741,0.31006 -0.75241,0.47543 -0.359668,0.16536 -0.79375,0.16536 -0.727604,0 -1.132748,-0.44235 -0.405143,-0.44648 -0.405143,-1.30638 v -2.997235 h 0.777214 v 2.629295 q 0,0.3514 0.03307,0.60358 0.03307,0.24805 0.14056,0.42582 0.111621,0.1819 0.289388,0.26458 0.177767,0.0827 0.516764,0.0827 0.301791,0 0.657325,-0.15709 0.359668,-0.1571 0.669727,-0.40101 v -3.447855 h 0.777213 z m 6.903974,-0.0413 q -0.219109,0.0579 -0.479558,0.0951 -0.256315,0.0372 -0.458887,0.0372 -0.706934,0 -1.07487,-0.38033 -0.367936,-0.38034 -0.367936,-1.21957 v -2.455664 h -0.525033 v -0.653191 h 0.525033 v -1.327051 h 0.777213 v 1.327051 h 1.604038 v 0.653191 H 61.53294 v 2.104264 q 0,0.3638 0.01654,0.57051 0.01654,0.20257 0.115755,0.38034 0.09095,0.16536 0.248047,0.24391 0.161231,0.0744 0.487826,0.0744 0.190169,0 0.396875,-0.0537 0.206706,-0.0579 0.297656,-0.0951 h 0.04134 z m 4.874122,-2.26549 q 0,1.12861 -0.578776,1.7818 -0.578777,0.65319 -1.550294,0.65319 -0.979785,0 -1.558562,-0.65319 -0.574642,-0.65319 -0.574642,-1.7818 0,-1.128617 0.574642,-1.781808 0.578777,-0.657324 1.558562,-0.657324 0.971517,0 1.550294,0.657324 0.578776,0.653191 0.578776,1.781808 z m -0.802019,0 q 0,-0.897107 -0.351399,-1.331189 -0.3514,-0.438216 -0.975652,-0.438216 -0.63252,0 -0.98392,0.438216 -0.347265,0.434082 -0.347265,1.331189 0,0.86816 0.3514,1.31878 0.351399,0.44648 0.979785,0.44648 0.620118,0 0.971517,-0.44235 0.355534,-0.44648 0.355534,-1.32291 z m 9.045449,-0.03721 q 0,0.578781 -0.165365,1.041801 -0.16123,0.46302 -0.438216,0.77721 -0.293522,0.3266 -0.644922,0.49196 -0.3514,0.16123 -0.77308,0.16123 -0.392741,0 -0.686263,-0.0951 -0.293522,-0.091 -0.578776,-0.24805 l -0.04961,0.21497 h -0.727604 v -6.432682 h 0.777214 v 2.298569 q 0.326595,-0.268718 0.694531,-0.438216 0.367937,-0.173633 0.826823,-0.173633 0.818555,0 1.289845,0.628385 0.475423,0.628386 0.475423,1.773536 z m -0.802018,0.02067 q 0,-0.826823 -0.272852,-1.252637 -0.272852,-0.429948 -0.880567,-0.429948 -0.338997,0 -0.686263,0.148828 -0.347266,0.144694 -0.644922,0.376204 v 2.645833 q 0.330729,0.14883 0.566374,0.20671 0.239778,0.0579 0.541569,0.0579 0.644922,0 1.008724,-0.42168 0.367937,-0.42582 0.367937,-1.33119 z m 5.841505,2.32337 h -0.777214 v -0.51263 q -0.392741,0.31006 -0.752409,0.47543 -0.359668,0.16536 -0.793751,0.16536 -0.727604,0 -1.132747,-0.44235 -0.405144,-0.44648 -0.405144,-1.30638 v -2.997235 h 0.777214 v 2.629295 q 0,0.3514 0.03307,0.60358 0.03307,0.24805 0.14056,0.42582 0.111621,0.1819 0.289388,0.26458 0.177767,0.0827 0.516765,0.0827 0.30179,0 0.657324,-0.15709 0.359668,-0.1571 0.669727,-0.40101 v -3.447855 h 0.777214 z m 2.364711,-5.390884 h -0.876433 v -0.806153 h 0.876433 z m -0.04961,5.390884 h -0.777214 v -4.617805 h 0.777214 z m 2.32338,0 h -0.777214 v -6.432682 h 0.777214 z m 5.283399,0 h -0.777214 v -0.48369 q -0.334864,0.28939 -0.698666,0.45062 -0.363802,0.16123 -0.789616,0.16123 -0.826823,0 -1.314649,-0.63665 -0.483692,-0.63666 -0.483692,-1.76527 0,-0.587045 0.165365,-1.045932 0.169499,-0.458887 0.454753,-0.781348 0.28112,-0.314193 0.65319,-0.479558 0.376205,-0.165364 0.777214,-0.165364 0.363802,0 0.644922,0.07855 0.28112,0.07441 0.591179,0.235645 v -2.000913 h 0.777214 z m -0.777214,-1.13688 v -2.649967 q -0.314193,-0.14056 -0.56224,-0.194304 -0.248047,-0.05374 -0.541569,-0.05374 -0.65319,0 -1.016993,0.454753 -0.363802,0.454752 -0.363802,1.289841 0,0.82269 0.28112,1.25264 0.28112,0.42581 0.901237,0.42581 0.33073,0 0.669727,-0.14469 0.338998,-0.14883 0.63252,-0.38034 z m 9.276954,-3.480925 -2.695443,6.321065 h -0.830958 l 0.859896,-1.9265 -1.839681,-4.394565 h 0.843359 l 1.418002,3.423045 1.430405,-3.423045 z m 4.878253,2.310975 q 0,1.12861 -0.57877,1.7818 -0.57878,0.65319 -1.5503,0.65319 -0.97978,0 -1.55856,-0.65319 -0.57464,-0.65319 -0.57464,-1.7818 0,-1.128617 0.57464,-1.781808 0.57878,-0.657324 1.55856,-0.657324 0.97152,0 1.5503,0.657324 0.57877,0.653191 0.57877,1.781808 z m -0.80201,0 q 0,-0.897107 -0.3514,-1.331189 -0.3514,-0.438216 -0.97566,-0.438216 -0.63252,0 -0.98392,0.438216 -0.34726,0.434082 -0.34726,1.331189 0,0.86816 0.3514,1.31878 0.3514,0.44648 0.97978,0.44648 0.62012,0 0.97152,-0.44235 0.35554,-0.44648 0.35554,-1.32291 z m 5.83324,2.30683 h -0.77722 v -0.51263 q -0.39274,0.31006 -0.75241,0.47543 -0.35966,0.16536 -0.79375,0.16536 -0.7276,0 -1.13274,-0.44235 -0.40515,-0.44648 -0.40515,-1.30638 v -2.997235 h 0.77722 v 2.629295 q 0,0.3514 0.0331,0.60358 0.0331,0.24805 0.14056,0.42582 0.11162,0.1819 0.28939,0.26458 0.17776,0.0827 0.51676,0.0827 0.30179,0 0.65733,-0.15709 0.35966,-0.1571 0.66972,-0.40101 v -3.447855 h 0.77722 z m 4.4111,-3.770311 h -0.0413 q -0.17363,-0.04134 -0.33899,-0.05788 -0.16123,-0.02067 -0.38448,-0.02067 -0.35966,0 -0.69453,0.161231 -0.33486,0.157096 -0.64492,0.409277 v 3.278351 h -0.77721 v -4.617805 h 0.77721 v 0.68213 q 0.46302,-0.372071 0.81442,-0.525033 0.35554,-0.157097 0.72347,-0.157097 0.20257,0 0.29352,0.0124 0.0909,0.0083 0.27286,0.03721 z m 7.56956,3.770311 h -0.77721 v -2.629295 q 0,-0.318327 -0.0372,-0.595312 -0.0372,-0.28112 -0.13642,-0.438217 -0.10336,-0.173633 -0.29766,-0.256315 -0.1943,-0.08682 -0.50436,-0.08682 -0.31833,0 -0.66559,0.157096 -0.34727,0.157096 -0.6656,0.401009 v 3.44785 h -0.77721 v -4.617805 h 0.77721 v 0.512631 q 0.36381,-0.301791 0.75241,-0.471289 0.38861,-0.169499 0.79789,-0.169499 0.74827,0 1.14101,0.450618 0.39274,0.450619 0.39274,1.298113 z m 5.36195,-2.22829 h -3.40238 q 0,0.42582 0.12816,0.74415 0.12816,0.31419 0.3514,0.51676 0.21497,0.19844 0.50849,0.29766 0.29766,0.0992 0.6532,0.0992 0.47128,0 0.94671,-0.18604 0.47956,-0.19017 0.68213,-0.37207 h 0.0413 v 0.84749 q -0.39274,0.16537 -0.80202,0.27699 -0.40928,0.11162 -0.8599,0.11162 -1.14928,0 -1.7942,-0.62012 -0.64492,-0.62425 -0.64492,-1.7694 0,-1.132747 0.61598,-1.798339 0.62012,-0.665593 1.62884,-0.665593 0.93431,0 1.43867,0.545703 0.5085,0.545703 0.5085,1.550294 z m -0.75654,-0.595308 q -0.004,-0.611849 -0.31006,-0.946713 -0.30179,-0.334863 -0.92191,-0.334863 -0.62425,0 -0.99632,0.367936 -0.36794,0.367936 -0.41755,0.91364 z m 5.93246,2.823598 h -0.97979 l -1.31051,-1.77353 -1.31879,1.77353 h -0.90537 l 1.80248,-2.3027 -1.78594,-2.315105 h 0.97978 l 1.30225,1.744597 1.30638,-1.744597 h 0.90951 l -1.81488,2.273764 z m 3.41064,-0.0413 q -0.2191,0.0579 -0.47955,0.0951 -0.25632,0.0372 -0.45889,0.0372 -0.70693,0 -1.07487,-0.38033 -0.36794,-0.38034 -0.36794,-1.21957 v -2.455664 h -0.52503 v -0.653191 h 0.52503 v -1.327051 h 0.77722 v 1.327051 h 1.60403 v 0.653191 h -1.60403 v 2.104264 q 0,0.3638 0.0165,0.57051 0.0165,0.20257 0.11576,0.38034 0.0909,0.16536 0.24805,0.24391 0.16123,0.0744 0.48782,0.0744 0.19017,0 0.39688,-0.0537 0.2067,-0.0579 0.29765,-0.0951 h 0.0413 z m 7.78041,-2.18695 h -3.40238 q 0,0.42582 0.12816,0.74415 0.12815,0.31419 0.35139,0.51676 0.21498,0.19844 0.5085,0.29766 0.29766,0.0992 0.65319,0.0992 0.47129,0 0.94671,-0.18604 0.47956,-0.19017 0.68213,-0.37207 h 0.0413 v 0.84749 q -0.39274,0.16537 -0.80201,0.27699 -0.40928,0.11162 -0.8599,0.11162 -1.14928,0 -1.79421,-0.62012 -0.64492,-0.62425 -0.64492,-1.7694 0,-1.132747 0.61598,-1.798339 0.62012,-0.665593 1.62885,-0.665593 0.93431,0 1.43867,0.545703 0.5085,0.545703 0.5085,1.550294 z m -0.75655,-0.595308 q -0.004,-0.611849 -0.31006,-0.946713 -0.30179,-0.334863 -0.9219,-0.334863 -0.62426,0 -0.99633,0.367936 -0.36793,0.367936 -0.41754,0.91364 z m 2.76986,-2.567286 h -0.87643 v -0.806153 h 0.87643 z m -0.0496,5.390884 h -0.77721 v -4.617805 h 0.77721 z m 5.39917,0 h -0.77722 v -2.629295 q 0,-0.318327 -0.0372,-0.595312 -0.0372,-0.28112 -0.13642,-0.438217 -0.10335,-0.173633 -0.29766,-0.256315 -0.1943,-0.08682 -0.50436,-0.08682 -0.31833,0 -0.66559,0.157096 -0.34727,0.157096 -0.6656,0.401009 v 3.44785 h -0.77721 v -4.617805 h 0.77721 v 0.512631 q 0.36381,-0.301791 0.75241,-0.471289 0.38861,-0.169499 0.79789,-0.169499 0.74827,0 1.14101,0.450618 0.39275,0.450619 0.39275,1.298113 z m 5.68853,0 h -1.02526 l -1.85209,-2.02158 -0.50436,0.47956 v 1.54202 h -0.77721 v -6.432682 h 0.77721 v 4.125852 l 2.24483,-2.310975 h 0.97978 l -2.1456,2.133204 z m 7.85896,-2.364711 q 0,0.562241 -0.16123,1.029391 -0.16123,0.46302 -0.45475,0.78549 -0.27285,0.30592 -0.64492,0.47542 -0.36794,0.16536 -0.78135,0.16536 -0.35967,0 -0.65319,-0.0785 -0.28939,-0.0786 -0.59118,-0.24392 v 1.93477 h -0.77721 v -6.321065 h 0.77721 v 0.483692 q 0.31006,-0.260449 0.69453,-0.434082 0.38861,-0.177767 0.82682,-0.177767 0.8351,0 1.29812,0.63252 0.46715,0.628385 0.46715,1.748731 z m -0.80202,0.02067 q 0,-0.835091 -0.28525,-1.248503 -0.28525,-0.413411 -0.87643,-0.413411 -0.33487,0 -0.67386,0.144694 -0.339,0.144694 -0.64906,0.380338 v 2.616893 q 0.33073,0.14883 0.56637,0.20257 0.23978,0.0538 0.54157,0.0538 0.64906,0 1.01286,-0.43822 0.3638,-0.43821 0.3638,-1.298111 z m 4.8948,-1.42627 h -0.0413 q -0.17363,-0.04134 -0.33899,-0.05788 -0.16123,-0.02067 -0.38448,-0.02067 -0.35966,0 -0.69453,0.161231 -0.33486,0.157096 -0.64492,0.409277 v 3.278351 h -0.77721 v -4.617805 h 0.77721 v 0.68213 q 0.46302,-0.372071 0.81442,-0.525033 0.35554,-0.157097 0.72347,-0.157097 0.20257,0 0.29352,0.0124 0.091,0.0083 0.27286,0.03721 z m 4.66742,1.463481 q 0,1.12861 -0.57878,1.7818 -0.57878,0.65319 -1.55029,0.65319 -0.97979,0 -1.55857,-0.65319 -0.57464,-0.65319 -0.57464,-1.7818 0,-1.128617 0.57464,-1.781808 0.57878,-0.657324 1.55857,-0.657324 0.97151,0 1.55029,0.657324 0.57878,0.653191 0.57878,1.781808 z m -0.80202,0 q 0,-0.897107 -0.3514,-1.331189 -0.3514,-0.438216 -0.97565,-0.438216 -0.63252,0 -0.98392,0.438216 -0.34727,0.434082 -0.34727,1.331189 0,0.86816 0.3514,1.31878 0.3514,0.44648 0.97979,0.44648 0.62011,0 0.97151,-0.44235 0.35554,-0.44648 0.35554,-1.32291 z m 5.75055,2.30683 h -0.77721 v -0.48369 q -0.33487,0.28939 -0.69867,0.45062 -0.3638,0.16123 -0.78962,0.16123 -0.82682,0 -1.31465,-0.63665 -0.48369,-0.63666 -0.48369,-1.76527 0,-0.587045 0.16537,-1.045932 0.1695,-0.458887 0.45475,-0.781348 0.28112,-0.314193 0.65319,-0.479558 0.37621,-0.165364 0.77721,-0.165364 0.36381,0 0.64493,0.07855 0.28112,0.07441 0.59118,0.235645 v -2.000913 h 0.77721 z m -0.77721,-1.13688 v -2.649967 q -0.3142,-0.14056 -0.56224,-0.194304 -0.24805,-0.05374 -0.54157,-0.05374 -0.65319,0 -1.017,0.454753 -0.3638,0.454752 -0.3638,1.289841 0,0.82269 0.28112,1.25264 0.28112,0.42581 0.90124,0.42581 0.33073,0 0.66973,-0.14469 0.33899,-0.14883 0.63252,-0.38034 z m 6.13502,1.13688 h -0.77721 v -0.51263 q -0.39274,0.31006 -0.75241,0.47543 -0.35967,0.16536 -0.79375,0.16536 -0.72761,0 -1.13275,-0.44235 -0.40514,-0.44648 -0.40514,-1.30638 v -2.997235 h 0.77721 v 2.629295 q 0,0.3514 0.0331,0.60358 0.0331,0.24805 0.14056,0.42582 0.11163,0.1819 0.28939,0.26458 0.17777,0.0827 0.51677,0.0827 0.30179,0 0.65732,-0.15709 0.35967,-0.1571 0.66973,-0.40101 v -3.447855 h 0.77721 z m 4.94441,-0.28938 q -0.38861,0.18603 -0.74001,0.28938 -0.34726,0.10336 -0.74,0.10336 -0.50023,0 -0.91778,-0.1447 -0.41754,-0.14883 -0.7152,-0.44648 -0.30179,-0.29766 -0.46716,-0.75241 -0.16536,-0.45475 -0.16536,-1.06247 0,-1.132747 0.62012,-1.777669 0.62425,-0.644923 1.64538,-0.644923 0.39687,0 0.77721,0.111622 0.38447,0.111621 0.7028,0.272851 v 0.86403 h -0.0413 q -0.35554,-0.276985 -0.73587,-0.425813 -0.37621,-0.148829 -0.73588,-0.148829 -0.66146,0 -1.04593,0.446485 -0.38034,0.44235 -0.38034,1.302246 0,0.83509 0.37207,1.28571 0.37621,0.44649 1.0542,0.44649 0.23565,0 0.47956,-0.062 0.24391,-0.062 0.43822,-0.16123 0.1695,-0.0868 0.31832,-0.1819 0.14883,-0.0992 0.23565,-0.1695 h 0.0413 z m 3.39411,0.24804 q -0.21911,0.0579 -0.47956,0.0951 -0.25631,0.0372 -0.45889,0.0372 -0.70693,0 -1.07487,-0.38033 -0.36793,-0.38034 -0.36793,-1.21957 v -2.455664 h -0.52503 v -0.653191 h 0.52503 v -1.327051 h 0.77721 v 1.327051 h 1.60404 v 0.653191 h -1.60404 v 2.104264 q 0,0.3638 0.0165,0.57051 0.0165,0.20257 0.11575,0.38034 0.0909,0.16536 0.24805,0.24391 0.16123,0.0744 0.48783,0.0744 0.19017,0 0.39687,-0.0537 0.20671,-0.0579 0.29766,-0.0951 h 0.0413 z m 2.20761,0.0413 h -0.98805 v -1.17822 h 0.98805 z"
         id="path5" />
      <path
         style="font-family:'Noto Sans Yi';-inkscape-font-specification:'Noto Sans Yi';fill:#ffffff;stroke:#808080"
         d="M 9.3686602,107.49933 H 6.2556707 v 1.73633 h 2.6747732 v 0.72761 H 6.2556707 v 2.96416 h -0.818555 v -6.1557 h 3.9315445 z m 3.7537778,1.65778 h -0.04134 q -0.173633,-0.0413 -0.338998,-0.0579 -0.161231,-0.0207 -0.384473,-0.0207 -0.359668,0 -0.694531,0.16123 -0.334864,0.15709 -0.644922,0.40927 v 3.27836 h -0.777214 v -4.61781 h 0.777214 v 0.68213 q 0.463021,-0.37207 0.81442,-0.52503 0.355534,-0.1571 0.723471,-0.1571 0.202571,0 0.293522,0.0124 0.09095,0.008 0.272852,0.0372 z m 4.667417,1.46348 q 0,1.12861 -0.578776,1.7818 -0.578776,0.6532 -1.550294,0.6532 -0.979785,0 -1.558562,-0.6532 -0.574642,-0.65319 -0.574642,-1.7818 0,-1.12861 0.574642,-1.7818 0.578777,-0.65733 1.558562,-0.65733 0.971518,0 1.550294,0.65733 0.578776,0.65319 0.578776,1.7818 z m -0.802018,0 q 0,-0.8971 -0.3514,-1.33118 -0.3514,-0.43822 -0.975652,-0.43822 -0.632519,0 -0.983919,0.43822 -0.347266,0.43408 -0.347266,1.33118 0,0.86817 0.3514,1.31878 0.3514,0.44649 0.979785,0.44649 0.620118,0 0.971518,-0.44235 0.355534,-0.44649 0.355534,-1.32292 z m 8.743655,2.30684 h -0.777214 v -2.6293 q 0,-0.29766 -0.02894,-0.57464 -0.0248,-0.27699 -0.111622,-0.44235 -0.09508,-0.17777 -0.272851,-0.26872 -0.177767,-0.091 -0.512631,-0.091 -0.326595,0 -0.65319,0.16536 -0.326595,0.16123 -0.65319,0.41342 0.0124,0.0951 0.02067,0.22324 0.0083,0.12402 0.0083,0.24804 v 2.9559 h -0.777213 v -2.6293 q 0,-0.30592 -0.02894,-0.57878 -0.02481,-0.27698 -0.111621,-0.44235 -0.09508,-0.17776 -0.272852,-0.26458 -0.177767,-0.091 -0.512631,-0.091 -0.318326,0 -0.640788,0.1571 -0.318326,0.15709 -0.636653,0.401 v 3.44786 h -0.777214 v -4.61781 h 0.777214 v 0.51263 q 0.363802,-0.30179 0.72347,-0.47129 0.363802,-0.1695 0.77308,-0.1695 0.471289,0 0.797884,0.19844 0.330729,0.19844 0.49196,0.54984 0.471289,-0.39688 0.859896,-0.57051 0.388607,-0.17777 0.830957,-0.17777 0.760678,0 1.120346,0.46302 0.363802,0.45889 0.363802,1.28571 z m 8.218623,0 h -0.777214 v -0.48369 q -0.334863,0.28938 -0.698665,0.45061 -0.363802,0.16124 -0.789616,0.16124 -0.826824,0 -1.314649,-0.63666 -0.483692,-0.63665 -0.483692,-1.76527 0,-0.58704 0.165365,-1.04593 0.169499,-0.45888 0.454753,-0.78135 0.281119,-0.31419 0.65319,-0.47955 0.376204,-0.16537 0.777214,-0.16537 0.363802,0 0.644922,0.0785 0.28112,0.0744 0.591178,0.23564 v -2.00091 h 0.777214 z m -0.777214,-1.13688 v -2.64997 q -0.314192,-0.14056 -0.562239,-0.19431 -0.248047,-0.0537 -0.54157,-0.0537 -0.65319,0 -1.016992,0.45475 -0.363802,0.45476 -0.363802,1.28985 0,0.82269 0.28112,1.25263 0.281119,0.42582 0.901237,0.42582 0.330729,0 0.669727,-0.1447 0.338997,-0.14882 0.632519,-0.38033 z m 6.172237,-1.09141 H 35.94276 q 0,0.42581 0.128158,0.74414 0.128157,0.31419 0.3514,0.51676 0.214974,0.19844 0.508496,0.29766 0.297656,0.0992 0.65319,0.0992 0.47129,0 0.946713,-0.18604 0.479557,-0.19017 0.682129,-0.37207 h 0.04134 v 0.8475 q -0.392741,0.16536 -0.802018,0.27698 -0.409278,0.11162 -0.859896,0.11162 -1.149285,0 -1.794207,-0.62011 -0.644922,-0.62425 -0.644922,-1.7694 0,-1.13275 0.615983,-1.79835 0.620118,-0.66559 1.628842,-0.66559 0.93431,0 1.438673,0.54571 0.508496,0.5457 0.508496,1.55029 z m -0.756543,-0.59531 q -0.0041,-0.61185 -0.310059,-0.94672 -0.301791,-0.33486 -0.921908,-0.33486 -0.624252,0 -0.996322,0.36794 -0.367936,0.36793 -0.417546,0.91364 z m 5.233792,1.49241 q 0,0.63252 -0.525033,1.03767 -0.520899,0.40514 -1.42627,0.40514 -0.51263,0 -0.942578,-0.11989 -0.425814,-0.12402 -0.715203,-0.26872 v -0.8723 h 0.04134 q 0.367936,0.27699 0.818555,0.44235 0.450618,0.16123 0.86403,0.16123 0.51263,0 0.802018,-0.16536 0.289389,-0.16537 0.289389,-0.5209 0,-0.27285 -0.157097,-0.41341 -0.157096,-0.14056 -0.603581,-0.23978 -0.165364,-0.0372 -0.434082,-0.0868 -0.264583,-0.0496 -0.483692,-0.10748 -0.607715,-0.16123 -0.86403,-0.47129 -0.252181,-0.31419 -0.252181,-0.76895 0,-0.28525 0.115755,-0.53743 0.11989,-0.25218 0.359668,-0.45062 0.231511,-0.19431 0.587045,-0.30593 0.359668,-0.11575 0.802018,-0.11575 0.413412,0 0.835092,0.10335 0.425814,0.0992 0.706934,0.24391 v 0.83096 h -0.04134 q -0.297657,-0.21911 -0.723471,-0.36793 -0.425814,-0.15297 -0.835091,-0.15297 -0.425814,0 -0.719336,0.16537 -0.293523,0.16123 -0.293523,0.48369 0,0.28525 0.177767,0.42995 0.173633,0.14469 0.56224,0.23564 0.214974,0.0496 0.479558,0.0992 0.268717,0.0496 0.446484,0.091 0.541569,0.12402 0.835092,0.42582 0.293522,0.30592 0.293522,0.81028 z m 1.947165,-4.0597 h -0.876433 v -0.80615 h 0.876433 z m -0.04961,5.39089 h -0.777214 v -4.61781 h 0.777214 z m 5.283403,-0.52504 q 0,1.17409 -0.533301,1.72393 -0.533301,0.54984 -1.641245,0.54984 -0.367936,0 -0.719336,-0.0537 -0.347265,-0.0496 -0.686263,-0.1447 v -0.79375 h 0.04134 q 0.190169,0.0744 0.603581,0.1819 0.413412,0.11162 0.826823,0.11162 0.396876,0 0.657325,-0.0951 0.260449,-0.0951 0.405143,-0.26459 0.144694,-0.16123 0.206706,-0.3886 0.06201,-0.22738 0.06201,-0.5085 v -0.42168 q -0.3514,0.28112 -0.673861,0.42168 -0.318327,0.13643 -0.814421,0.13643 -0.826823,0 -1.314649,-0.59532 -0.483692,-0.59944 -0.483692,-1.68671 0,-0.59532 0.165365,-1.02527 0.169499,-0.43408 0.458887,-0.74827 0.268717,-0.29352 0.65319,-0.45475 0.384473,-0.16537 0.764812,-0.16537 0.401009,0 0.669727,0.0827 0.272851,0.0786 0.574642,0.24392 l 0.04961,-0.19844 h 0.727605 z m -0.777214,-0.74414 v -2.51767 q -0.310059,-0.14056 -0.578776,-0.19844 -0.264584,-0.062 -0.529167,-0.062 -0.640788,0 -1.008725,0.42995 -0.367936,0.42994 -0.367936,1.2485 0,0.77721 0.272852,1.17822 0.272851,0.40101 0.905371,0.40101 0.338998,0 0.677995,-0.12816 0.343132,-0.13229 0.628386,-0.3514 z m 6.1681,1.26918 h -0.777214 v -2.6293 q 0,-0.31833 -0.03721,-0.59531 -0.03721,-0.28112 -0.136426,-0.43822 -0.103353,-0.17363 -0.297656,-0.25631 -0.194303,-0.0868 -0.504362,-0.0868 -0.318327,0 -0.665593,0.1571 -0.347266,0.15709 -0.665593,0.401 v 3.44786 h -0.777213 v -4.61781 h 0.777213 v 0.51263 q 0.363803,-0.30179 0.75241,-0.47129 0.388606,-0.1695 0.797884,-0.1695 0.748275,0 1.141016,0.45062 0.392741,0.45062 0.392741,1.29811 z m 3.108856,-1.17823 -1.165821,2.70785 h -0.603581 l 0.719336,-2.70785 z m 6.841962,1.13689 q -0.219108,0.0579 -0.479557,0.0951 -0.256316,0.0372 -0.458887,0.0372 -0.706934,0 -1.07487,-0.38034 -0.367937,-0.38034 -0.367937,-1.21956 v -2.45567 h -0.525033 v -0.65319 h 0.525033 v -1.32705 h 0.777214 v 1.32705 h 1.604037 v 0.65319 h -1.604037 v 2.10427 q 0,0.3638 0.01654,0.5705 0.01654,0.20258 0.115755,0.38034 0.09095,0.16537 0.248047,0.24391 0.16123,0.0744 0.487825,0.0744 0.19017,0 0.396876,-0.0537 0.206705,-0.0579 0.297656,-0.0951 h 0.04134 z m 4.874123,-2.2655 q 0,1.12861 -0.578777,1.7818 -0.578776,0.6532 -1.550293,0.6532 -0.979786,0 -1.558562,-0.6532 -0.574642,-0.65319 -0.574642,-1.7818 0,-1.12861 0.574642,-1.7818 0.578776,-0.65733 1.558562,-0.65733 0.971517,0 1.550293,0.65733 0.578777,0.65319 0.578777,1.7818 z m -0.802019,0 q 0,-0.8971 -0.3514,-1.33118 -0.3514,-0.43822 -0.975651,-0.43822 -0.63252,0 -0.98392,0.43822 -0.347266,0.43408 -0.347266,1.33118 0,0.86817 0.3514,1.31878 0.3514,0.44649 0.979786,0.44649 0.620117,0 0.971517,-0.44235 0.355534,-0.44649 0.355534,-1.32292 z m 9.045445,-0.0579 q 0,0.56224 -0.161231,1.0294 -0.16123,0.46302 -0.454752,0.78548 -0.272852,0.30592 -0.644923,0.47542 -0.367936,0.16537 -0.781347,0.16537 -0.359669,0 -0.653191,-0.0785 -0.289388,-0.0786 -0.591178,-0.24391 v 1.93476 h -0.777214 v -6.32106 h 0.777214 v 0.48369 q 0.310058,-0.26045 0.694531,-0.43408 0.388607,-0.17777 0.826823,-0.17777 0.835092,0 1.298113,0.63252 0.467155,0.62839 0.467155,1.74873 z m -0.802019,0.0207 q 0,-0.83509 -0.285254,-1.2485 -0.285254,-0.41341 -0.876432,-0.41341 -0.334864,0 -0.673861,0.14469 -0.338998,0.1447 -0.649056,0.38034 v 2.6169 q 0.330729,0.14883 0.566373,0.20257 0.239779,0.0537 0.54157,0.0537 0.649056,0 1.012858,-0.43821 0.363802,-0.43822 0.363802,-1.29812 z m 4.894793,-1.42627 h -0.04134 q -0.173633,-0.0413 -0.338998,-0.0579 -0.16123,-0.0207 -0.384473,-0.0207 -0.359668,0 -0.694531,0.16123 -0.334864,0.15709 -0.644922,0.40927 v 3.27836 h -0.777214 v -4.61781 h 0.777214 v 0.68213 q 0.463021,-0.37207 0.814421,-0.52503 0.355534,-0.1571 0.72347,-0.1571 0.202572,0 0.293522,0.0124 0.09095,0.008 0.272852,0.0372 z m 4.66742,1.46348 q 0,1.12861 -0.578776,1.7818 -0.578777,0.6532 -1.550294,0.6532 -0.979786,0 -1.558562,-0.6532 -0.574642,-0.65319 -0.574642,-1.7818 0,-1.12861 0.574642,-1.7818 0.578776,-0.65733 1.558562,-0.65733 0.971517,0 1.550294,0.65733 0.578776,0.65319 0.578776,1.7818 z m -0.802019,0 q 0,-0.8971 -0.3514,-1.33118 -0.3514,-0.43822 -0.975651,-0.43822 -0.63252,0 -0.98392,0.43822 -0.347266,0.43408 -0.347266,1.33118 0,0.86817 0.3514,1.31878 0.3514,0.44649 0.979786,0.44649 0.620117,0 0.971517,-0.44235 0.355534,-0.44649 0.355534,-1.32292 z m 4.402838,2.2655 q -0.219109,0.0579 -0.479558,0.0951 -0.256315,0.0372 -0.458887,0.0372 -0.706934,0 -1.07487,-0.38034 -0.367936,-0.38034 -0.367936,-1.21956 v -2.45567 h -0.525033 v -0.65319 h 0.525033 v -1.32705 h 0.777213 v 1.32705 h 1.604038 v 0.65319 h -1.604038 v 2.10427 q 0,0.3638 0.01654,0.5705 0.01654,0.20258 0.115755,0.38034 0.09095,0.16537 0.248047,0.24391 0.161231,0.0744 0.487826,0.0744 0.190169,0 0.396875,-0.0537 0.206706,-0.0579 0.297656,-0.0951 h 0.04134 z m 4.874118,-2.2655 q 0,1.12861 -0.578776,1.7818 -0.578776,0.6532 -1.550294,0.6532 -0.979785,0 -1.558561,-0.6532 -0.574643,-0.65319 -0.574643,-1.7818 0,-1.12861 0.574643,-1.7818 0.578776,-0.65733 1.558561,-0.65733 0.971518,0 1.550294,0.65733 0.578776,0.65319 0.578776,1.7818 z m -0.802018,0 q 0,-0.8971 -0.3514,-1.33118 -0.3514,-0.43822 -0.975652,-0.43822 -0.632519,0 -0.983919,0.43822 -0.347266,0.43408 -0.347266,1.33118 0,0.86817 0.3514,1.31878 0.3514,0.44649 0.979785,0.44649 0.620118,0 0.971518,-0.44235 0.355534,-0.44649 0.355534,-1.32292 z m 4.402838,2.2655 q -0.21911,0.0579 -0.479558,0.0951 -0.256316,0.0372 -0.458887,0.0372 -0.706934,0 -1.074871,-0.38034 -0.367936,-0.38034 -0.367936,-1.21956 v -2.45567 h -0.525033 v -0.65319 h 0.525033 v -1.32705 h 0.777214 v 1.32705 h 1.604038 v 0.65319 h -1.604038 v 2.10427 q 0,0.3638 0.01654,0.5705 0.01654,0.20258 0.115756,0.38034 0.09095,0.16537 0.248047,0.24391 0.16123,0.0744 0.487825,0.0744 0.19017,0 0.396875,-0.0537 0.206709,-0.0579 0.297659,-0.0951 h 0.0413 z m 4.89066,-4.57647 -2.69544,6.32106 h -0.83096 l 0.85989,-1.92649 -1.83968,-4.39457 h 0.84336 l 1.418,3.42305 1.43041,-3.42305 z m 5.08082,2.25309 q 0,0.56224 -0.16123,1.0294 -0.16123,0.46302 -0.45475,0.78548 -0.27285,0.30592 -0.64492,0.47542 -0.36794,0.16537 -0.78135,0.16537 -0.35967,0 -0.65319,-0.0785 -0.28939,-0.0786 -0.59118,-0.24391 v 1.93476 h -0.77721 v -6.32106 h 0.77721 v 0.48369 q 0.31006,-0.26045 0.69453,-0.43408 0.38861,-0.17777 0.82683,-0.17777 0.83509,0 1.29811,0.63252 0.46715,0.62839 0.46715,1.74873 z m -0.80202,0.0207 q 0,-0.83509 -0.28525,-1.2485 -0.28525,-0.41341 -0.87643,-0.41341 -0.33487,0 -0.67386,0.14469 -0.339,0.1447 -0.64906,0.38034 v 2.6169 q 0.33073,0.14883 0.56637,0.20257 0.23978,0.0537 0.54157,0.0537 0.64906,0 1.01286,-0.43821 0.3638,-0.43822 0.3638,-1.29812 z m 5.87872,0.11576 h -3.40238 q 0,0.42581 0.12816,0.74414 0.12815,0.31419 0.3514,0.51676 0.21497,0.19844 0.50849,0.29766 0.29766,0.0992 0.65319,0.0992 0.47129,0 0.94672,-0.18604 0.47955,-0.19017 0.68212,-0.37207 h 0.0414 v 0.8475 q -0.39274,0.16536 -0.80202,0.27698 -0.40928,0.11162 -0.8599,0.11162 -1.14928,0 -1.79421,-0.62011 -0.64492,-0.62425 -0.64492,-1.7694 0,-1.13275 0.61599,-1.79835 0.62011,-0.66559 1.62884,-0.66559 0.93431,0 1.43867,0.54571 0.5085,0.5457 0.5085,1.55029 z m -0.75655,-0.59531 q -0.004,-0.61185 -0.31006,-0.94672 -0.30179,-0.33486 -0.9219,-0.33486 -0.62425,0 -0.99633,0.36794 -0.36793,0.36793 -0.41754,0.91364 z m 3.54708,1.64537 -1.16582,2.70785 h -0.60358 l 0.71933,-2.70785 z m 9.98802,1.17823 h -0.81855 v -5.30407 l -1.71153,3.60908 h -0.48782 l -1.69912,-3.60908 v 5.30407 h -0.76481 v -6.1557 h 1.11621 l 1.64124,3.42718 1.5875,-3.42718 h 1.13688 z m 6.5071,-6.1557 -2.24069,6.1557 h -1.09141 l -2.24069,-6.1557 h 0.87643 l 1.93064,5.41569 1.93063,-5.41569 z m 5.68855,5.70921 q -0.22738,0.0992 -0.41341,0.18604 -0.18191,0.0868 -0.47956,0.1819 -0.25218,0.0786 -0.54984,0.13229 -0.29352,0.0579 -0.64906,0.0579 -0.66972,0 -1.21956,-0.18604 -0.5457,-0.19017 -0.95085,-0.59118 -0.39687,-0.39274 -0.62011,-0.99632 -0.22325,-0.60771 -0.22325,-1.40973 0,-0.76068 0.21498,-1.36013 0.21497,-0.59944 0.62011,-1.01285 0.39275,-0.40101 0.94672,-0.61185 0.5581,-0.21084 1.2361,-0.21084 0.49609,0 0.98805,0.11989 0.4961,0.11989 1.09968,0.42168 v 0.97151 h -0.062 q -0.5085,-0.42581 -1.00873,-0.62011 -0.50023,-0.19431 -1.07074,-0.19431 -0.46715,0 -0.84335,0.15297 -0.37208,0.14882 -0.6656,0.46715 -0.28525,0.31006 -0.44648,0.78548 -0.1571,0.47129 -0.1571,1.09141 0,0.64906 0.17363,1.11621 0.17777,0.46716 0.45476,0.76068 0.28939,0.30592 0.67386,0.45475 0.3886,0.14469 0.81855,0.14469 0.59118,0 1.10795,-0.20257 0.51676,-0.20257 0.96738,-0.60771 h 0.0579 z m 7.66052,0.44649 h -0.77308 v -0.49196 q -0.10336,0.0703 -0.28112,0.19844 -0.17364,0.12402 -0.339,0.19843 -0.1943,0.0951 -0.44649,0.1571 -0.25218,0.0661 -0.59117,0.0661 -0.62426,0 -1.05834,-0.41342 -0.43408,-0.41341 -0.43408,-1.0542 0,-0.52503 0.22324,-0.84749 0.22738,-0.3266 0.64492,-0.51263 0.42168,-0.18604 1.01286,-0.25218 0.59118,-0.0661 1.26918,-0.0992 v -0.11989 q 0,-0.26458 -0.0951,-0.43822 -0.0909,-0.17363 -0.26458,-0.27285 -0.16537,-0.0951 -0.39688,-0.12816 -0.23151,-0.0331 -0.48369,-0.0331 -0.30592,0 -0.68213,0.0827 -0.3762,0.0786 -0.77721,0.23151 h -0.0413 v -0.78961 q 0.22737,-0.062 0.65732,-0.13643 0.42995,-0.0744 0.8475,-0.0744 0.48782,0 0.84749,0.0827 0.3638,0.0785 0.62838,0.27285 0.26045,0.19017 0.39688,0.49196 0.13643,0.30179 0.13643,0.74828 z m -0.77308,-1.13688 v -1.28571 q -0.35554,0.0207 -0.83923,0.062 -0.47956,0.0413 -0.76068,0.11989 -0.33486,0.0951 -0.54157,0.29765 -0.2067,0.19844 -0.2067,0.54984 0,0.39688 0.23978,0.59945 0.23978,0.19843 0.73174,0.19843 0.40927,0 0.74827,-0.15709 0.339,-0.16123 0.62839,-0.38447 z m 6.13089,1.13688 h -0.77722 v -2.6293 q 0,-0.31833 -0.0372,-0.59531 -0.0372,-0.28112 -0.13643,-0.43822 -0.10335,-0.17363 -0.29765,-0.25631 -0.19431,-0.0868 -0.50437,-0.0868 -0.31832,0 -0.66559,0.1571 -0.34727,0.15709 -0.66559,0.401 v 3.44786 h -0.77722 v -4.61781 h 0.77722 v 0.51263 q 0.3638,-0.30179 0.75241,-0.47129 0.3886,-0.1695 0.79788,-0.1695 0.74828,0 1.14102,0.45062 0.39274,0.45062 0.39274,1.29811 z m 5.24206,0 h -0.77721 v -0.48369 q -0.33487,0.28938 -0.69867,0.45061 -0.3638,0.16124 -0.78961,0.16124 -0.82683,0 -1.31465,-0.63666 -0.48369,-0.63665 -0.48369,-1.76527 0,-0.58704 0.16536,-1.04593 0.1695,-0.45888 0.45475,-0.78135 0.28112,-0.31419 0.65319,-0.47955 0.37621,-0.16537 0.77722,-0.16537 0.3638,0 0.64492,0.0785 0.28112,0.0744 0.59118,0.23564 v -2.00091 h 0.77721 z m -0.77721,-1.13688 v -2.64997 q -0.31419,-0.14056 -0.56224,-0.19431 -0.24805,-0.0537 -0.54157,-0.0537 -0.65319,0 -1.01699,0.45475 -0.36381,0.45476 -0.36381,1.28985 0,0.82269 0.28112,1.25263 0.28112,0.42582 0.90124,0.42582 0.33073,0 0.66973,-0.1447 0.339,-0.14882 0.63252,-0.38033 z m 9.34723,-1.22784 q 0,0.56224 -0.16123,1.0294 -0.16123,0.46302 -0.45475,0.78548 -0.27285,0.30592 -0.64492,0.47542 -0.36794,0.16537 -0.78135,0.16537 -0.35967,0 -0.65319,-0.0785 -0.28939,-0.0786 -0.59118,-0.24391 v 1.93476 h -0.77721 v -6.32106 h 0.77721 v 0.48369 q 0.31006,-0.26045 0.69453,-0.43408 0.38861,-0.17777 0.82682,-0.17777 0.8351,0 1.29812,0.63252 0.46715,0.62839 0.46715,1.74873 z m -0.80202,0.0207 q 0,-0.83509 -0.28525,-1.2485 -0.28525,-0.41341 -0.87643,-0.41341 -0.33487,0 -0.67386,0.14469 -0.339,0.1447 -0.64906,0.38034 v 2.6169 q 0.33073,0.14883 0.56637,0.20257 0.23978,0.0537 0.54157,0.0537 0.64906,0 1.01286,-0.43821 0.3638,-0.43822 0.3638,-1.29812 z m 4.8948,-1.42627 h -0.0413 q -0.17364,-0.0413 -0.339,-0.0579 -0.16123,-0.0207 -0.38447,-0.0207 -0.35967,0 -0.69454,0.16123 -0.33486,0.15709 -0.64492,0.40927 v 3.27836 h -0.77721 v -4.61781 h 0.77721 v 0.68213 q 0.46302,-0.37207 0.81442,-0.52503 0.35554,-0.1571 0.72347,-0.1571 0.20257,0 0.29352,0.0124 0.091,0.008 0.27286,0.0372 z m 4.66742,1.46348 q 0,1.12861 -0.57878,1.7818 -0.57878,0.6532 -1.55029,0.6532 -0.97979,0 -1.55857,-0.6532 -0.57464,-0.65319 -0.57464,-1.7818 0,-1.12861 0.57464,-1.7818 0.57878,-0.65733 1.55857,-0.65733 0.97151,0 1.55029,0.65733 0.57878,0.65319 0.57878,1.7818 z m -0.80202,0 q 0,-0.8971 -0.3514,-1.33118 -0.3514,-0.43822 -0.97565,-0.43822 -0.63252,0 -0.98392,0.43822 -0.34727,0.43408 -0.34727,1.33118 0,0.86817 0.3514,1.31878 0.3514,0.44649 0.97979,0.44649 0.62011,0 0.97151,-0.44235 0.35554,-0.44649 0.35554,-1.32292 z m 5.75055,2.30684 h -0.77721 v -0.48369 q -0.33487,0.28938 -0.69867,0.45061 -0.3638,0.16124 -0.78962,0.16124 -0.82682,0 -1.31465,-0.63666 -0.48369,-0.63665 -0.48369,-1.76527 0,-0.58704 0.16537,-1.04593 0.1695,-0.45888 0.45475,-0.78135 0.28112,-0.31419 0.65319,-0.47955 0.37621,-0.16537 0.77721,-0.16537 0.36381,0 0.64493,0.0785 0.28112,0.0744 0.59118,0.23564 v -2.00091 h 0.77721 z m -0.77721,-1.13688 v -2.64997 q -0.3142,-0.14056 -0.56224,-0.19431 -0.24805,-0.0537 -0.54157,-0.0537 -0.65319,0 -1.017,0.45475 -0.3638,0.45476 -0.3638,1.28985 0,0.82269 0.28112,1.25263 0.28112,0.42582 0.90124,0.42582 0.33073,0 0.66973,-0.1447 0.33899,-0.14882 0.63252,-0.38033 z m 6.13502,1.13688 h -0.77721 v -0.51263 q -0.39274,0.31006 -0.75241,0.47542 -0.35967,0.16537 -0.79375,0.16537 -0.7276,0 -1.13275,-0.44236 -0.40514,-0.44648 -0.40514,-1.30638 v -2.99723 h 0.77721 v 2.6293 q 0,0.3514 0.0331,0.60358 0.0331,0.24805 0.14056,0.42581 0.11162,0.1819 0.28938,0.26459 0.17777,0.0827 0.51677,0.0827 0.30179,0 0.65732,-0.1571 0.35967,-0.15709 0.66973,-0.40101 v -3.44785 h 0.77721 z m 4.94441,-0.28939 q -0.38861,0.18603 -0.74001,0.28939 -0.34726,0.10335 -0.74,0.10335 -0.50023,0 -0.91778,-0.14469 -0.41754,-0.14883 -0.7152,-0.44649 -0.30179,-0.29765 -0.46715,-0.75241 -0.16537,-0.45475 -0.16537,-1.06247 0,-1.13274 0.62012,-1.77767 0.62425,-0.64492 1.64538,-0.64492 0.39687,0 0.77721,0.11162 0.38447,0.11162 0.7028,0.27286 v 0.86403 h -0.0413 q -0.35554,-0.27699 -0.73587,-0.42582 -0.37621,-0.14883 -0.73588,-0.14883 -0.66146,0 -1.04593,0.44649 -0.38034,0.44235 -0.38034,1.30224 0,0.8351 0.37207,1.28571 0.37621,0.44649 1.0542,0.44649 0.23565,0 0.47956,-0.062 0.24391,-0.062 0.43822,-0.16123 0.1695,-0.0868 0.31832,-0.1819 0.14883,-0.0992 0.23565,-0.1695 h 0.0413 z m 3.39411,0.24805 q -0.21911,0.0579 -0.47956,0.0951 -0.25631,0.0372 -0.45888,0.0372 -0.70694,0 -1.07487,-0.38034 -0.36794,-0.38034 -0.36794,-1.21956 v -2.45567 h -0.52503 v -0.65319 h 0.52503 v -1.32705 h 0.77721 v 1.32705 h 1.60404 v 0.65319 h -1.60404 v 2.10427 q 0,0.3638 0.0165,0.5705 0.0165,0.20258 0.11575,0.38034 0.0909,0.16537 0.24805,0.24391 0.16123,0.0744 0.48783,0.0744 0.19017,0 0.39687,-0.0537 0.20671,-0.0579 0.29766,-0.0951 h 0.0413 z m 2.20761,0.0413 h -0.98805 v -1.17823 h 0.98805 z"
         id="path6" />
    </g>
  </g>
  <g
     inkscape:groupmode="layer"
     id="layer4"
     inkscape:label="back 1"
     transform="translate(0,-55.000001)"
     style="fill:#000000" />
  <g
     inkscape:label="Logo"
     inkscape:groupmode="layer"
     id="layer1"
     transform="translate(0,-247)" />
  <text
     xml:space="preserve"
     style="font-style:normal;font-variant:normal;font-weight:normal;font-stretch:normal;font-size:7.76111px;font-family:'Noto Sans Yi';-inkscape-font-specification:'Noto Sans Yi';text-align:start;writing-mode:lr-tb;direction:ltr;text-anchor:start;fill:#000000;stroke:#ffffff;stroke-width:0.264583;stroke-linejoin:bevel"
     x="2.9831307"
     y="22.102283"
     id="text3"><tspan
       sodipodi:role="line"
       id="tspan3"
       style="font-size:7.76111px;stroke-width:0.264583"
       x="2.9831307"
       y="22.102283">GET OUT OF THE</tspan><tspan
       sodipodi:role="line"
       style="font-size:7.76111px;stroke-width:0.264583"
       x="2.9831307"
       y="31.803671"
       id="tspan4" /></text>
  <text
     xml:space="preserve"
     style="font-style:normal;font-variant:normal;font-weight:normal;font-stretch:normal;font-size:16.9333px;font-family:'Noto Sans Yi';-inkscape-font-specification:'Noto Sans Yi';text-align:start;writing-mode:lr-tb;direction:ltr;text-anchor:start;fill:#000000;stroke:#ffffff;stroke-width:0.264583;stroke-linejoin:bevel"
     x="15.475553"
     y="32.906261"
     id="text3-7"><tspan
       sodipodi:role="line"
       style="font-size:16.9333px;stroke-width:0.264583"
       x="15.475553"
       y="32.906261"
       id="tspan4-4">BOX</tspan></text>
</svg>
