<?xml version="1.0" encoding="UTF-8" standalone="no"?>
<svg
   height="100"
   width="240"
   viewBox="-22.35 -10.25 38.74 7.6875"
   version="1.1"
   id="svg2"
   sodipodi:docname="stripe-logo.svg"
   inkscape:version="1.4.2 (ebf0e940, 2025-05-08)"
   xmlns:inkscape="http://www.inkscape.org/namespaces/inkscape"
   xmlns:sodipodi="http://sodipodi.sourceforge.net/DTD/sodipodi-0.dtd"
   xmlns="http://www.w3.org/2000/svg"
   xmlns:svg="http://www.w3.org/2000/svg">
  <defs
     id="defs2" />
  <sodipodi:namedview
     id="namedview2"
     pagecolor="#ffffff"
     bordercolor="#000000"
     borderopacity="0.25"
     inkscape:showpageshadow="2"
     inkscape:pageopacity="0.0"
     inkscape:pagecheckerboard="0"
     inkscape:deskcolor="#d1d1d1"
     inkscape:zoom="0.69333333"
     inkscape:cx="600"
     inkscape:cy="400.24038"
     inkscape:window-width="1568"
     inkscape:window-height="970"
     inkscape:window-x="0"
     inkscape:window-y="25"
     inkscape:window-maximized="0"
     inkscape:current-layer="svg2" />
  <path
     d="m -19.950076,-13.968749 h 34.312653 c 0.830016,0 1.502744,1.008273 1.502744,2.252287 v 10.88605164 c 0,1.24401302 -0.672728,2.25228656 -1.502744,2.25228656 h -34.312653 c -0.830016,0 -1.502744,-1.00827354 -1.502744,-2.25228656 V -11.716462 c 0,-1.244014 0.672728,-2.252287 1.502744,-2.252287 z"
     fill="#32364e"
     fill-rule="evenodd"
     id="path1"
     style="stroke-width:0.306622" />
  <path
     d="M 7.2740632,-5.0443618 H 4.6593606 c 0.05951,0.6260861 0.5182517,0.8103777 1.0386645,0.8103777 0.5305162,0 0.9481441,-0.1114405 1.3124042,-0.2953713 v 1.0761757 c -0.3631737,0.2008814 -0.8421153,0.3462228 -1.4808243,0.3462228 -1.3008582,0 -2.2125786,-0.8147055 -2.2125786,-2.4257232 0,-1.3603669 0.7732304,-2.4408703 2.0441562,-2.4408703 1.2687617,0 1.9309135,1.0801428 1.9309135,2.4480833 0,0.1291122 -0.011894,0.4089756 -0.018033,0.4811053 z M 5.3525266,-6.8843913 c -0.3339598,0 -0.7050671,0.2520934 -0.7050671,0.854016 h 1.3809188 c 0,-0.6012013 -0.3476652,-0.854016 -0.6758517,-0.854016 z M 1.198576,-3.1069569 c -0.4674005,0 -0.75303489,-0.197275 -0.94489949,-0.3379279 l -0.00291,1.5114785 -1.33548231,0.2841912 -7.264e-4,-6.2352551 h 1.17643731 l 0.069242,0.3299936 c 0.1850136,-0.1727507 0.52294099,-0.4190738 1.04660279,-0.4190738 0.9380469,0 1.8216366,0.8449999 1.8216366,2.400117 0,1.6975734 -0.8742128,2.4664765 -1.829931,2.4664765 z M 0.8876968,-6.7902621 c -0.3069124,0 -0.49877709,0.1121618 -0.63798789,0.2647162 l 0.00793,1.9850104 c 0.1294731,0.1402923 0.31665009,0.253536 0.63005359,0.253536 0.4937285,0 0.8248033,-0.5377272 0.8248033,-1.2568607 0,-0.6989371 -0.336124,-1.2464019 -0.8248033,-1.2464019 z m -3.8596625,-1.0942081 h 1.3408916 v 4.6819413 h -1.3408916 z m 0,-1.4948888 1.3408916,-0.285273 v 1.088077 l -1.3408916,0.2849124 z m -1.3852519,3.002761 v 3.1740691 h -1.335123 v -4.6819413 h 1.1547994 l 0.084031,0.3949103 c 0.3123218,-0.574874 0.9369644,-0.4583844 1.1147645,-0.3945496 v 1.2276481 c -0.1698657,-0.054819 -0.7029037,-0.1348826 -1.0184719,0.2798634 z m -2.8191923,1.5313143 c 0,0.7872961 0.8428362,0.5424157 1.0141445,0.4738924 v 1.0873558 c -0.1781609,0.097736 -0.5009412,0.1770786 -0.9376868,0.1770786 -0.7927059,0 -1.3874153,-0.5838903 -1.3874153,-1.3747929 l 0.00574,-4.2855882 1.3041058,-0.276978 0.0011,1.1598458 h 1.0145046 v 1.1389286 h -1.0145054 z m -1.6207551,0.22793 c 0,0.9614894 -0.7652968,1.5103968 -1.876094,1.5103968 -0.460549,0 -0.964014,-0.089441 -1.460627,-0.3033056 v -1.2752538 c 0.448286,0.2437985 1.019554,0.4266474 1.462069,0.4266474 0.297896,0 0.512482,-0.080064 0.512482,-0.3267477 0,-0.637627 -2.030812,-0.3974349 -2.030812,-1.8764552 0,-0.9456208 0.722378,-1.5114786 1.805767,-1.5114786 0.4425166,0 0.8850322,0.068162 1.3275479,0.2445198 v 1.2579426 c -0.4064514,-0.2192744 -0.9221788,-0.3436982 -1.3286299,-0.3436982 -0.279863,0 -0.453696,0.080785 -0.453696,0.2896009 0,0.6008407 2.041993,0.315207 2.041993,1.9078316 z"
     fill="#ffffff"
     fill-rule="evenodd"
     id="path2"
     sodipodi:nodetypes="ccsccsssscsccssccccccssssccssscccccccccccccccccccsccscccccccsssccssssccsss"
     style="stroke-width:0.360649" />
</svg>
